<?xml version="1.0" encoding="UTF-8" standalone="no"?><!DOCTYPE svg PUBLIC "-//W3C//DTD SVG 1.1//EN" "http://www.w3.org/Graphics/SVG/1.1/DTD/svg11.dtd"><svg width="100%" height="100%" viewBox="0 0 250 250" version="1.1" xmlns="http://www.w3.org/2000/svg" xmlns:xlink="http://www.w3.org/1999/xlink" xml:space="preserve" xmlns:serif="http://www.serif.com/" style="fill-rule:evenodd;clip-rule:evenodd;stroke-linejoin:round;stroke-miterlimit:2;"><path d="M229.166,65.038l-0,-44.197l-44.203,-0l20.831,-20.828l44.206,-0l0,44.19l-20.834,20.835Z" style="fill:#65bc7b;fill-rule:nonzero;"/><path d="M65.022,20.834l-44.188,0l0,44.207l-20.834,-20.835l-0,-44.206l44.191,0l20.831,20.834Z" style="fill:#65bc7b;fill-rule:nonzero;"/><path d="M20.834,184.963l0,44.203l44.207,-0l-20.832,20.834l-44.209,0l0,-44.206l20.834,-20.831Z" style="fill:#65bc7b;fill-rule:nonzero;"/><path d="M184.972,229.166l44.194,-0l-0,-44.203l20.834,20.831l0,44.206l-44.191,0l-20.837,-20.834Z" style="fill:#65bc7b;fill-rule:nonzero;"/><path d="M208.334,41.675l-44.181,-0l-39.153,39.147l-39.144,-39.147l-44.19,-0l-0,44.191l39.143,39.15l-39.143,39.146l-0,44.172l44.209,0l39.125,-39.128l39.128,39.128l44.206,0l0,-44.193l-39.131,-39.125l39.131,-39.141l0,-44.2Zm-145.834,35.562l-0,-14.725l14.725,0l33.05,33.038l-14.728,14.728l-33.047,-33.041Zm14.744,110.263l-14.744,-0l-0,-14.709l33.041,-33.041l14.734,14.731l-33.031,33.019Zm47.756,-47.75l-14.725,-14.738l14.725,-14.734l14.731,14.734l-14.731,14.738Zm62.5,33.019l-0,14.731l-14.741,-0l-33.018,-33.019l14.734,-14.731l33.025,33.019Zm-0,-95.516l-33.025,33.025l-14.744,-14.728l33.05,-33.038l14.719,0l-0,14.741Z" style="fill:#263238;fill-rule:nonzero;"/></svg>