<?xml version="1.0" encoding="UTF-8" standalone="no"?>
<!DOCTYPE svg PUBLIC "-//W3C//DTD SVG 1.1//EN" "http://www.w3.org/Graphics/SVG/1.1/DTD/svg11.dtd">
<svg width="100%" height="100%" viewBox="0 0 79 79" version="1.1" xmlns="http://www.w3.org/2000/svg" xmlns:xlink="http://www.w3.org/1999/xlink" xml:space="preserve" xmlns:serif="http://www.serif.com/" style="fill-rule:evenodd;clip-rule:evenodd;stroke-linejoin:round;stroke-miterlimit:2;">
    <g transform="matrix(1,0,0,1,-12.875,-81.84)">
        <path d="M91.665,120.71L91.665,121.75C91.665,143.22 74.255,160.63 52.785,160.63L51.755,160.63C30.275,160.63 12.875,143.22 12.875,121.75L12.875,120.71C12.875,99.24 30.275,81.84 51.755,81.84L52.785,81.84C74.255,81.84 91.665,99.24 91.665,120.71Z" style="fill:rgb(101,188,123);fill-rule:nonzero;"/>
    </g>
    <g transform="matrix(1,0,0,1,-12.875,-81.84)">
        <path d="M51.532,134.199C51.793,134.199 52.055,134.288 52.268,134.465C53.628,135.599 55.283,136.199 57.052,136.199C60.689,136.199 64.511,125.471 64.511,120.738C64.511,116.625 61.166,113.278 57.052,113.278C55.292,113.278 53.637,113.881 52.268,115.022C51.842,115.377 51.221,115.377 50.795,115.022C49.426,113.881 47.769,113.278 46.002,113.278C41.888,113.278 38.543,116.625 38.543,120.738C38.543,125.471 42.365,136.199 46.002,136.199C47.777,136.199 49.435,135.599 50.795,134.465C51.008,134.288 51.27,134.199 51.532,134.199ZM57.052,138.498C55.08,138.498 53.152,137.896 51.532,136.789C49.911,137.896 47.979,138.498 46.002,138.498C40.076,138.498 36.242,125.304 36.242,120.738C36.242,115.356 40.621,110.978 46.002,110.978C47.973,110.978 49.906,111.584 51.532,112.698C53.157,111.584 55.085,110.978 57.052,110.978C62.433,110.978 66.812,115.356 66.812,120.738C66.812,125.304 62.978,138.498 57.052,138.498Z" style="fill:white;fill-rule:nonzero;"/>
    </g>
    <g transform="matrix(1,0,0,1,-12.875,-81.84)">
        <path d="M51.959,107.567C53.743,108.224 55.758,108.008 57.365,106.954C58.972,105.9 59.975,104.137 60.084,102.241C58.306,101.582 56.29,101.799 54.679,102.856C53.068,103.912 52.064,105.674 51.959,107.567ZM54.05,110.239C52.764,110.239 51.475,109.944 50.293,109.347C49.927,109.163 49.687,108.797 49.663,108.388C49.488,105.422 50.927,102.565 53.418,100.932C55.908,99.299 59.1,99.12 61.752,100.464C62.118,100.649 62.357,101.015 62.38,101.424C62.549,104.392 61.111,107.248 58.627,108.877C57.248,109.781 55.652,110.239 54.05,110.239Z" style="fill:white;fill-rule:nonzero;"/>
    </g>
    <g transform="matrix(1,0,0,1,-12.875,-81.84)">
        <path d="M51.532,115.289C50.897,115.289 50.381,114.774 50.381,114.139C50.381,110.641 49.216,107.294 47.099,104.715C46.696,104.225 46.767,103.5 47.258,103.097C47.75,102.694 48.474,102.765 48.877,103.256C51.331,106.246 52.682,110.11 52.682,114.139C52.682,114.774 52.167,115.289 51.532,115.289Z" style="fill:white;fill-rule:nonzero;"/>
    </g>
    <g transform="matrix(1,0,0,1,-12.875,-81.84)">
        <path d="M42.958,119.196L40.902,118.165C41.203,117.565 41.543,116.885 42.158,116.331C42.628,115.907 43.355,115.944 43.782,116.416C44.207,116.888 44.168,117.615 43.697,118.04C43.406,118.303 43.198,118.717 42.958,119.196Z" style="fill:white;fill-rule:nonzero;"/>
    </g>
</svg>
