<?xml version="1.0" standalone="no"?>
<!DOCTYPE svg PUBLIC "-//W3C//DTD SVG 20010904//EN"
 "http://www.w3.org/TR/2001/REC-SVG-20010904/DTD/svg10.dtd">
<svg version="1.0" xmlns="http://www.w3.org/2000/svg"
 width="512.000000pt" height="512.000000pt" viewBox="0 0 512.000000 512.000000"
 preserveAspectRatio="xMidYMid meet">
<metadata>
Created by potrace 1.14, written by Peter Selinger 2001-2017
</metadata>
<g transform="translate(0.000000,512.000000) scale(0.100000,-0.100000)"
fill="#000000" stroke="none">
<path d="M1769 4754 c-145 -338 -283 -810 -335 -1144 -3 -19 -9 -60 -14 -90
-5 -30 -12 -86 -15 -125 -3 -38 -8 -90 -11 -115 -12 -105 -4 -439 11 -530 3
-14 7 -45 11 -70 3 -25 9 -60 14 -77 5 -18 6 -33 3 -33 -13 0 -104 81 -197
175 -237 241 -428 525 -511 762 l-32 91 -55 -52 c-93 -89 -159 -199 -206 -346
-43 -133 -57 -262 -56 -505 1 -155 5 -238 20 -395 3 -30 7 -77 9 -105 2 -27 6
-68 9 -90 16 -135 20 -233 20 -420 0 -201 -1 -214 -27 -291 -27 -80 -61 -134
-113 -179 -37 -32 -139 -63 -212 -66 -64 -2 -77 -14 -47 -39 8 -7 15 -17 15
-22 0 -10 67 -112 114 -173 269 -346 664 -583 1086 -649 19 -3 46 -8 59 -11
107 -21 511 -22 626 -1 11 2 47 7 80 11 32 4 68 9 80 11 11 2 32 6 47 9 89 16
302 68 376 92 48 14 89 27 92 28 3 1 19 7 35 14 17 7 59 23 94 37 257 103 512
255 899 538 454 331 562 402 742 488 73 35 200 86 230 93 8 2 40 10 70 18 87
25 116 28 282 34 l158 5 -28 21 c-15 12 -29 24 -32 27 -14 17 -218 166 -308
225 -98 64 -314 180 -377 203 -16 6 -55 20 -85 31 -83 32 -184 59 -290 77 -99
17 -304 24 -377 14 -24 -4 -43 -4 -43 0 0 3 21 27 48 51 157 150 269 329 443
709 145 318 266 509 418 661 116 115 215 185 363 257 53 26 97 50 97 53 1 6
-49 17 -144 34 -16 2 -39 7 -51 9 -12 2 -45 7 -74 11 -29 4 -60 8 -69 10 -90
17 -453 26 -581 13 -115 -11 -184 -19 -200 -23 -8 -2 -31 -6 -50 -9 -344 -54
-684 -215 -910 -431 -102 -96 -207 -220 -247 -290 -11 -19 -12 -19 -22 8 -6
16 -11 34 -11 42 0 25 -82 259 -137 389 -115 273 -261 533 -455 808 -36 50
-149 200 -158 208 -3 3 -16 18 -28 34 l-22 28 -21 -48z"/>
</g>
</svg>
