<?xml version="1.0" standalone="no"?>
<!DOCTYPE svg PUBLIC "-//W3C//DTD SVG 20010904//EN"
 "http://www.w3.org/TR/2001/REC-SVG-20010904/DTD/svg10.dtd">
<svg version="1.0" xmlns="http://www.w3.org/2000/svg"
 width="700.000000pt" height="700.000000pt" viewBox="0 0 700.000000 700.000000"
 preserveAspectRatio="xMidYMid meet">
<metadata>
Created by potrace 1.11, written by Peter Selinger 2001-2013
</metadata>
<g transform="translate(0.000000,700.000000) scale(0.100000,-0.100000)"
fill="#000000" stroke="none">
<path d="M2437 6573 c-47 -109 -63 -148 -103 -258 -25 -66 -49 -129 -53 -140
-21 -48 -126 -377 -156 -490 -46 -169 -114 -461 -130 -555 -3 -19 -10 -60 -15
-90 -5 -30 -12 -75 -15 -100 -3 -25 -8 -52 -10 -60 -2 -8 -6 -42 -10 -75 -3
-33 -8 -78 -10 -100 -15 -130 -18 -203 -19 -405 0 -204 7 -382 20 -442 2 -13
7 -43 10 -68 3 -25 11 -76 18 -113 7 -37 10 -66 5 -65 -33 12 -333 303 -436
423 -171 200 -346 465 -448 680 -54 112 -95 227 -95 262 l0 24 -27 -19 c-41
-29 -126 -119 -174 -182 -90 -121 -186 -359 -205 -510 -2 -19 -6 -42 -9 -50
-2 -8 -7 -40 -10 -70 -3 -30 -8 -73 -12 -95 -6 -46 -6 -480 1 -540 2 -22 7
-81 11 -131 3 -50 8 -104 10 -120 2 -16 6 -65 10 -109 4 -44 8 -96 10 -115 2
-19 7 -66 10 -105 4 -38 8 -86 10 -105 13 -128 20 -270 20 -430 0 -267 -18
-370 -86 -500 -75 -142 -207 -219 -383 -223 -64 -2 -73 -4 -63 -17 7 -8 2 -6
-11 4 -38 33 -26 -2 35 -99 145 -230 319 -430 508 -583 39 -31 72 -60 75 -63
5 -5 157 -107 205 -136 133 -82 385 -189 555 -236 262 -73 447 -96 765 -96
177 0 237 2 339 13 28 3 77 8 109 11 32 4 66 8 75 9 9 2 37 7 62 11 25 3 58 9
75 11 25 4 278 57 325 68 162 39 446 134 600 203 96 43 340 168 427 219 129
75 360 224 446 287 18 13 124 91 237 173 113 82 212 154 220 161 8 7 29 23 47
35 259 183 334 235 421 292 56 36 105 66 107 66 3 0 24 12 48 27 99 62 307
158 432 198 233 75 359 94 590 91 l151 -2 -31 26 c-244 208 -525 396 -790 531
-241 123 -467 198 -730 244 -41 7 -207 18 -275 18 -77 0 -251 -12 -261 -19 -5
-3 37 41 94 98 107 107 159 171 244 298 97 147 182 311 365 709 131 286 257
503 386 666 75 94 230 248 310 308 31 23 59 45 60 50 2 4 8 7 13 7 4 0 40 21
80 46 39 26 125 72 192 104 86 42 115 59 101 63 -62 19 -240 52 -395 72 -97
13 -140 17 -319 30 -75 6 -369 6 -455 0 -83 -5 -200 -15 -223 -19 -9 -2 -44
-7 -77 -12 -33 -4 -62 -8 -65 -9 -3 -1 -30 -5 -60 -10 -65 -10 -60 -9 -85 -18
-11 -3 -31 -8 -45 -11 -153 -26 -414 -121 -600 -218 -310 -162 -574 -394 -768
-676 l-50 -72 -22 82 c-77 287 -238 680 -396 970 -119 217 -172 306 -293 488
-134 201 -374 520 -391 520 -3 0 -14 -17 -23 -37z"/>
</g>
</svg>
