<?xml version="1.0" encoding="UTF-8" standalone="no"?><!DOCTYPE svg PUBLIC "-//W3C//DTD SVG 1.1//EN" "http://www.w3.org/Graphics/SVG/1.1/DTD/svg11.dtd"><svg width="100%" height="100%" viewBox="0 0 11031 1511" version="1.1" xmlns="http://www.w3.org/2000/svg" xmlns:xlink="http://www.w3.org/1999/xlink" xml:space="preserve" xmlns:serif="http://www.serif.com/" style="fill-rule:evenodd;clip-rule:evenodd;stroke-linejoin:round;stroke-miterlimit:2;"><path d="M0.717,1210.22c467.211,275.271 617.952,-321.809 857.825,-700.351c0.417,-0.661 0.836,-1.315 1.255,-1.973c-43.452,-164.703 -130.438,-336.824 -271.349,-507.892c0,-0 -189.985,404.966 -117.776,740.908c71.968,334.819 -191.484,599.25 -470.242,468.8c0.095,0.17 0.192,0.342 0.287,0.508" style="fill:#1f9fff;"/><path d="M0.431,1209.71c278.754,130.449 542.209,-133.982 470.241,-468.801c-157.174,-125.387 -238.434,-294.393 -244.173,-343.166c-48.753,248.814 244.631,946.849 -226.33,811.508c0.09,0.155 0.17,0.307 0.262,0.459" style="fill:#10c0ff;"/><path d="M0.169,1209.26c486.373,136.241 183.736,-553.767 226.33,-811.507c-270.701,205.342 95.421,832.309 -226.499,811.207c0.056,0.1 0.115,0.202 0.169,0.3" style="fill:#23def5;"/><path d="M472.968,1508.41c93.972,7.506 199.827,-2.3 317.91,-32.901c402.793,-104.39 567.022,-460.517 901.291,-424.367c-203.763,-172.868 -370.302,-218.623 -516.045,-197.911c-114.185,16.229 -215.596,73.257 -312.138,141.933c-268.657,191.111 -499.589,472.414 -862.93,215.659c93.603,165.136 249.435,279.835 471.912,297.587" style="fill:#23def5;"/><path d="M472.968,1508.41c186.203,-104.312 331.234,-287.355 391.018,-513.246c-268.657,191.111 -499.589,472.414 -862.93,215.659c93.603,165.136 249.435,279.835 471.912,297.587" style="fill:#10c0ff;"/><path d="M863.985,995.166c96.545,-68.675 197.952,-125.704 312.137,-141.934c195.462,-162.043 156.289,-454.572 461.912,-575.297c0,0 -537.22,-146.933 -778.238,229.961c-0.419,0.655 -0.838,1.309 -1.256,1.972c-239.873,378.545 -390.61,975.628 -857.825,700.35c0.116,0.204 0.228,0.405 0.341,0.603c363.333,256.756 594.27,-24.544 862.929,-215.655" style="fill:#1f9fff;"/><path d="M1.056,1210.82c363.332,256.761 594.271,-24.546 862.929,-215.654c39.03,-147.491 41.723,-313.24 -4.188,-487.273c-0.42,0.657 -0.838,1.312 -1.257,1.974c-239.872,378.542 -390.609,975.629 -857.822,700.344c0.114,0.208 0.226,0.409 0.338,0.609" style="fill:#3572ff;"/><g><path d="M3218.55,580.828l-284.506,819.076l-329.427,0l-124.284,-378.841l-128.776,378.841l-329.427,0l-284.506,-819.076l320.443,-0l140.755,432.748l146.745,-432.748l287.501,-0l142.252,437.24l146.745,-437.24l296.485,-0Z" style="fill:#1f9fff;fill-rule:nonzero;"/><path d="M4133.46,989.617c0,4.992 -1.497,31.446 -4.492,79.362l-569.011,0c11.979,30.947 31.945,54.655 59.896,71.127c27.952,16.471 62.891,24.707 104.818,24.707c35.937,-0 66.135,-4.492 90.592,-13.477c24.458,-8.984 51.161,-24.457 80.111,-46.419l176.693,178.19c-79.861,87.847 -199.154,131.771 -357.878,131.771c-98.828,-0 -185.677,-18.218 -260.547,-54.655c-74.87,-36.437 -132.769,-87.099 -173.698,-151.986c-40.929,-64.887 -61.393,-137.76 -61.393,-218.62c-0,-81.857 20.215,-154.98 60.644,-219.368c40.43,-64.388 95.834,-114.551 166.211,-150.489c70.378,-35.937 149.49,-53.906 237.338,-53.906c82.856,-0 158.474,16.471 226.855,49.414c68.382,32.943 122.787,81.359 163.217,145.248c40.429,63.888 60.644,140.256 60.644,229.101Zm-447.721,-193.164c-34.94,0 -63.889,9.484 -86.849,28.451c-22.961,18.967 -37.935,45.92 -44.922,80.859l263.541,0c-6.987,-33.941 -21.961,-60.645 -44.921,-80.111c-22.961,-19.466 -51.91,-29.199 -86.849,-29.199Z" style="fill:#1f9fff;fill-rule:nonzero;"/><rect x="4239.77" y="288.836" width="338.412" height="1111.07" style="fill:#1f9fff;fill-rule:nonzero;"/><rect x="4727.93" y="288.836" width="338.412" height="1111.07" style="fill:#1f9fff;fill-rule:nonzero;"/><path d="M5538.02,669.174c59.896,-68.88 148.243,-103.32 265.04,-103.32l-0,299.479c-26.953,-3.993 -51.91,-5.989 -74.87,-5.989c-115.799,-0 -173.698,58.897 -173.698,176.693l-0,363.867l-338.412,0l0,-819.076l321.94,-0l0,88.346Z" style="fill:#1f9fff;fill-rule:nonzero;"/><path d="M6762.89,989.617c0,4.992 -1.497,31.446 -4.492,79.362l-569.011,0c11.979,30.947 31.945,54.655 59.896,71.127c27.951,16.471 62.891,24.707 104.818,24.707c35.937,-0 66.135,-4.492 90.592,-13.477c24.458,-8.984 51.161,-24.457 80.111,-46.419l176.693,178.19c-79.861,87.847 -199.154,131.771 -357.878,131.771c-98.828,-0 -185.677,-18.218 -260.547,-54.655c-74.87,-36.437 -132.769,-87.099 -173.698,-151.986c-40.929,-64.887 -61.393,-137.76 -61.393,-218.62c-0,-81.857 20.214,-154.98 60.644,-219.368c40.43,-64.388 95.834,-114.551 166.211,-150.489c70.378,-35.937 149.49,-53.906 237.338,-53.906c82.856,-0 158.474,16.471 226.855,49.414c68.381,32.943 122.787,81.359 163.217,145.248c40.429,63.888 60.644,140.256 60.644,229.101Zm-447.722,-193.164c-34.939,0 -63.888,9.484 -86.849,28.451c-22.96,18.967 -37.934,45.92 -44.921,80.859l263.541,0c-6.987,-33.941 -21.961,-60.645 -44.922,-80.111c-22.96,-19.466 -51.909,-29.199 -86.849,-29.199Z" style="fill:#1f9fff;fill-rule:nonzero;"/><path d="M7234.57,625.75l178.19,-0l0,247.07l-167.708,0l-0,527.084l-338.412,0l0,-527.084l-112.305,0l0,-247.07l112.305,-0l0,-4.492c0,-106.815 31.945,-191.418 95.834,-253.809c63.889,-62.392 153.732,-93.587 269.531,-93.587c37.934,-0 74.87,3.494 110.807,10.481c35.938,6.988 65.886,16.971 89.844,29.948l-80.859,235.092c-27.952,-12.978 -53.407,-19.467 -76.367,-19.467c-24.957,0 -44.673,7.737 -59.148,23.21c-14.474,15.473 -21.712,39.182 -21.712,71.126l0,1.498Z" style="fill:#1f9fff;fill-rule:nonzero;"/><path d="M7948.83,669.174c59.896,-68.88 148.243,-103.32 265.04,-103.32l-0,299.479c-26.953,-3.993 -51.91,-5.989 -74.87,-5.989c-115.799,-0 -173.698,58.897 -173.698,176.693l-0,363.867l-338.412,0l0,-819.076l321.94,-0l0,88.346Z" style="fill:#1f9fff;fill-rule:nonzero;"/><path d="M9173.7,989.617c0,4.992 -1.497,31.446 -4.492,79.362l-569.011,0c11.979,30.947 31.945,54.655 59.896,71.127c27.951,16.471 62.891,24.707 104.818,24.707c35.937,-0 66.135,-4.492 90.592,-13.477c24.458,-8.984 51.161,-24.457 80.111,-46.419l176.693,178.19c-79.861,87.847 -199.154,131.771 -357.878,131.771c-98.828,-0 -185.677,-18.218 -260.547,-54.655c-74.87,-36.437 -132.769,-87.099 -173.698,-151.986c-40.929,-64.887 -61.393,-137.76 -61.393,-218.62c-0,-81.857 20.214,-154.98 60.644,-219.368c40.43,-64.388 95.834,-114.551 166.211,-150.489c70.378,-35.937 149.49,-53.906 237.338,-53.906c82.856,-0 158.474,16.471 226.855,49.414c68.381,32.943 122.787,81.359 163.217,145.248c40.429,63.888 60.644,140.256 60.644,229.101Zm-447.722,-193.164c-34.939,0 -63.888,9.484 -86.849,28.451c-22.96,18.967 -37.934,45.92 -44.921,80.859l263.541,0c-6.987,-33.941 -21.961,-60.645 -44.922,-80.111c-22.96,-19.466 -51.909,-29.199 -86.849,-29.199Z" style="fill:#1f9fff;fill-rule:nonzero;"/><path d="M9600.45,1414.88c-69.878,-0 -138.759,-7.487 -206.641,-22.461c-67.882,-14.974 -122.786,-34.44 -164.713,-58.398l92.838,-223.113c37.934,22.961 82.856,40.929 134.766,53.907c51.91,12.977 102.322,19.466 151.237,19.466c38.933,-0 66.135,-3.244 81.608,-9.733c15.473,-6.489 23.21,-16.222 23.21,-29.199c-0,-12.978 -9.733,-21.962 -29.199,-26.954c-19.466,-4.991 -51.161,-9.982 -95.085,-14.974c-66.884,-7.986 -123.785,-18.218 -170.703,-30.696c-46.919,-12.478 -88.097,-36.686 -123.535,-72.624c-35.439,-35.937 -53.158,-87.348 -53.158,-154.232c-0,-52.908 15.972,-100.325 47.917,-142.253c31.944,-41.927 79.611,-75.368 143.001,-100.325c63.39,-24.957 139.508,-37.435 228.353,-37.435c61.893,-0 122.537,5.74 181.934,17.22c59.397,11.48 110.058,28.201 151.986,50.163l-92.839,223.112c-71.875,-39.931 -150.738,-59.896 -236.589,-59.896c-73.871,0 -110.807,12.978 -110.807,38.932c-0,12.978 9.983,22.212 29.948,27.702c19.965,5.491 51.41,10.732 94.336,15.723c66.884,7.986 123.535,18.468 169.954,31.445c46.42,12.978 87.349,37.435 122.787,73.373c35.438,35.937 53.158,87.348 53.158,154.232c-0,50.911 -15.973,97.33 -47.917,139.257c-31.945,41.928 -79.861,75.369 -143.75,100.326c-63.889,24.957 -141.255,37.435 -232.097,37.435Z" style="fill:#1f9fff;fill-rule:nonzero;"/><path d="M10695.1,565.854c100.825,-0 181.934,30.447 243.327,91.341c61.394,60.894 92.09,152.735 92.09,275.521l0,467.188l-338.411,0l-0,-408.789c-0,-93.837 -33.442,-140.756 -100.326,-140.756c-37.934,0 -68.631,13.227 -92.09,39.681c-23.459,26.454 -35.189,68.132 -35.189,125.033l0,384.831l-338.411,0l-0,-1111.07l338.411,-0l0,357.877c62.891,-53.906 139.757,-80.859 230.599,-80.859Z" style="fill:#1f9fff;fill-rule:nonzero;"/></g></svg>