<?xml version="1.0" encoding="UTF-8" standalone="no"?><!DOCTYPE svg PUBLIC "-//W3C//DTD SVG 1.1//EN" "http://www.w3.org/Graphics/SVG/1.1/DTD/svg11.dtd"><svg width="100%" height="100%" viewBox="0 0 11031 1511" version="1.1" xmlns="http://www.w3.org/2000/svg" xmlns:xlink="http://www.w3.org/1999/xlink" xml:space="preserve" xmlns:serif="http://www.serif.com/" style="fill-rule:evenodd;clip-rule:evenodd;stroke-linejoin:round;stroke-miterlimit:2;"><path d="M0.717,1210.22c467.211,275.271 617.952,-321.809 857.825,-700.351c0.417,-0.661 0.836,-1.315 1.255,-1.973c-43.452,-164.703 -130.438,-336.824 -271.349,-507.892c0,-0 -189.985,404.966 -117.776,740.908c71.968,334.819 -191.484,599.25 -470.242,468.8c0.095,0.17 0.192,0.342 0.287,0.508" style="fill:#1f9fff;"/><path d="M0.431,1209.71c278.754,130.449 542.209,-133.982 470.241,-468.801c-157.174,-125.387 -238.434,-294.393 -244.173,-343.166c-48.753,248.814 244.631,946.849 -226.33,811.508c0.09,0.155 0.17,0.307 0.262,0.459" style="fill:#10c0ff;"/><path d="M0.169,1209.26c486.373,136.241 183.736,-553.767 226.33,-811.507c-270.701,205.342 95.421,832.309 -226.499,811.207c0.056,0.1 0.115,0.202 0.169,0.3" style="fill:#23def5;"/><path d="M472.968,1508.41c93.972,7.506 199.827,-2.3 317.91,-32.901c402.793,-104.39 567.022,-460.517 901.291,-424.367c-203.763,-172.868 -370.302,-218.623 -516.045,-197.911c-114.185,16.229 -215.596,73.257 -312.138,141.933c-268.657,191.111 -499.589,472.414 -862.93,215.659c93.603,165.136 249.435,279.835 471.912,297.587" style="fill:#23def5;"/><path d="M472.968,1508.41c186.203,-104.312 331.234,-287.355 391.018,-513.246c-268.657,191.111 -499.589,472.414 -862.93,215.659c93.603,165.136 249.435,279.835 471.912,297.587" style="fill:#10c0ff;"/><path d="M863.985,995.166c96.545,-68.675 197.952,-125.704 312.137,-141.934c195.462,-162.043 156.289,-454.572 461.912,-575.297c0,0 -537.22,-146.933 -778.238,229.961c-0.419,0.655 -0.838,1.309 -1.256,1.972c-239.873,378.545 -390.61,975.628 -857.825,700.35c0.116,0.204 0.228,0.405 0.341,0.603c363.333,256.756 594.27,-24.544 862.929,-215.655" style="fill:#1f9fff;"/><path d="M1.056,1210.82c363.332,256.761 594.271,-24.546 862.929,-215.654c39.03,-147.491 41.723,-313.24 -4.188,-487.273c-0.42,0.657 -0.838,1.312 -1.257,1.974c-239.872,378.542 -390.609,975.629 -857.822,700.344c0.114,0.208 0.226,0.409 0.338,0.609" style="fill:#3572ff;"/><text x="1746.61px" y="1399.9px" style="font-family:'Montserrat-Black', 'Montserrat';font-weight:900;font-size:1497.4px;fill:#1f9fff;">w<tspan x="3187.1px " y="1399.9px ">e</tspan>llr<tspan x="5816.53px 6794.33px 7552.02px 8227.34px " y="1399.9px 1399.9px 1399.9px 1399.9px ">efre</tspan>sh</text></svg>