<svg viewBox="0 0 591 387" xmlns="http://www.w3.org/2000/svg" fill-rule="evenodd" clip-rule="evenodd" stroke-linejoin="round" stroke-miterlimit="2"><path d="M582.463 250.759a441.819 441.819 0 00-91.752-7.595c17.702-41.831 21.35-92.267 10.68-150.343-.814-4.383-4.926-7.614-9.689-7.614-.795 0-1.586.089-2.358.267-33.229 8.733-64.879 22.042-93.905 39.489-18.882-48.085-51.213-90.582-93.621-123.058-3.92-2.828-9.546-2.47-13.02.826-43.615 41.427-72.773 83.992-87.052 126.732-30.934-19.638-65.053-34.497-101.045-44.007a10.486 10.486 0 00-2.357-.268c-4.764 0-8.876 3.232-9.69 7.615-10.67 58.076-6.982 108.503 10.68 150.343a441.823 441.823 0 00-91.752 7.594c-2.789.606-5.157 2.326-6.471 4.702a8.645 8.645 0 00-.413 7.641C43.437 363.018 126.742 386.04 194.43 386.04c34.2-.202 68.152-5.459 100.593-15.575 32.441 10.131 66.396 15.4 100.602 15.612 67.679 0 150.993-23.032 193.732-122.957a8.639 8.639 0 00-.413-7.641c-1.312-2.385-3.684-4.113-6.481-4.72zm-113.554-6.603c-36.009 2.068-71.162 11.14-103.199 26.632a9.86 9.86 0 00-4.543 2.387c-19.906 10.733-37.268 25.135-51.029 42.327.43-16.96-1.25-33.91-5.006-50.509 11.801-46.625 42.139-86.325 90.474-118.081 27.136-17.481 56.838-31.206 88.182-40.747 8.398 54.017 3.324 100.338-14.879 137.991zM296.488 21.622c17.318 14.317 63.341 56.634 82.065 114.306-37.351 24.538-66.355 58.61-83.53 98.126-15.931-36.956-42.369-69.159-76.451-93.121 11.89-39.847 37.96-79.924 77.916-119.311zM106.297 106.11c34.08 10.357 66.186 25.701 95.115 45.458 41.53 27.165 71.196 67.438 83.511 113.37a204.804 204.804 0 00-5.015 50.509c-39.838-49.958-103.16-67.168-158.782-71.337-18.193-37.607-23.267-83.937-14.829-137.973v-.027zm74.591 261.619C107.26 364 54.422 329.966 23.651 266.563c44.578-7.089 205.346-23.95 258.361 88.603-32.68 9.603-66.891 13.862-101.124 12.59v-.027zm228.269 0c-34.232 1.261-68.442-2.998-101.124-12.591 53.006-112.516 213.764-95.655 258.411-88.575-30.82 63.403-83.659 97.437-157.287 101.193v-.027z" fill="url(#_Linear1)" fill-rule="nonzero"/><defs><linearGradient id="_Linear1" x1="0" y1="0" x2="1" y2="0" gradientUnits="userSpaceOnUse" gradientTransform="matrix(586.918 0 0 548.089 -19.668 192.967)"><stop offset="0" stop-color="#84aa50"/><stop offset="1" stop-color="#00acc9"/></linearGradient></defs></svg>