<?xml version="1.0" encoding="UTF-8" standalone="no"?><!DOCTYPE svg PUBLIC "-//W3C//DTD SVG 1.1//EN" "http://www.w3.org/Graphics/SVG/1.1/DTD/svg11.dtd"><svg width="100%" height="100%" viewBox="0 0 5573 1323" version="1.1" xmlns="http://www.w3.org/2000/svg" xmlns:xlink="http://www.w3.org/1999/xlink" xml:space="preserve" xmlns:serif="http://www.serif.com/" style="fill-rule:evenodd;clip-rule:evenodd;stroke-linejoin:round;stroke-miterlimit:2;"><g><path d="M0.627,1059.03c408.847,240.883 540.757,-281.608 750.664,-612.862c0.365,-0.579 0.732,-1.151 1.099,-1.727c-38.024,-144.128 -114.144,-294.747 -237.452,-444.445c0,-0 -166.252,354.377 -103.063,648.352c62.977,292.993 -167.564,524.391 -411.499,410.237c0.083,0.149 0.168,0.299 0.251,0.445" style="fill:#1f9fff;"/><path d="M0.377,1058.59c243.932,114.153 474.475,-117.244 411.498,-410.237c-137.54,-109.724 -208.649,-257.617 -213.671,-300.297c-42.662,217.731 214.072,828.567 -198.056,710.133c0.079,0.135 0.149,0.268 0.229,0.401" style="fill:#10c0ff;"/><path d="M0.148,1058.19c425.614,119.222 160.783,-484.589 198.056,-710.132c-236.884,179.691 83.501,728.336 -198.204,709.87c0.049,0.087 0.101,0.177 0.148,0.262" style="fill:#23def5;"/><path d="M413.884,1319.97c82.233,6.568 174.864,-2.013 278.196,-28.791c352.475,-91.349 496.189,-402.988 788.7,-371.354c-178.308,-151.273 -324.043,-191.312 -451.58,-173.188c-99.92,14.202 -188.663,64.106 -273.145,124.203c-235.096,167.237 -437.179,413.399 -755.131,188.718c81.91,144.507 218.275,244.878 412.96,260.412" style="fill:#23def5;"/><path d="M413.884,1319.97c162.942,-91.281 289.856,-251.458 342.171,-449.13c-235.096,167.237 -437.179,413.399 -755.131,188.718c81.91,144.507 218.275,244.878 412.96,260.412" style="fill:#10c0ff;"/><path d="M756.054,870.844c84.485,-60.096 173.224,-110.001 273.145,-124.203c171.044,-141.801 136.765,-397.786 404.209,-503.43c0,-0 -470.11,-128.578 -681.019,201.234c-0.367,0.573 -0.734,1.145 -1.099,1.725c-209.908,331.257 -341.815,853.751 -750.664,612.861c0.101,0.179 0.199,0.355 0.298,0.528c317.945,224.682 520.033,-21.478 755.13,-188.715" style="fill:#1f9fff;"/><path d="M0.924,1059.56c317.944,224.686 520.034,-21.48 755.13,-188.714c34.155,-129.066 36.511,-274.11 -3.664,-426.402c-0.368,0.575 -0.734,1.148 -1.1,1.727c-209.907,331.254 -341.814,853.752 -750.662,612.856c0.1,0.182 0.198,0.358 0.296,0.533" style="fill:#3572ff;"/></g><text x="1397.78px" y="888.79px" style="font-family:'Montserrat-Black', 'Montserrat';font-weight:900;font-size:479.167px;fill:#1f9fff;">W<tspan x="2003.45px 2360.91px 2691.53px 3022.16px 3414.12px 3771.57px 4115.14px 4507.09px 4864.55px 5214.34px " y="888.79px 888.79px 888.79px 888.79px 888.79px 888.79px 888.79px 888.79px 888.79px 888.79px ">ELLREFRESH</tspan></text></svg>