<?xml version="1.0" encoding="UTF-8" standalone="no"?><!DOCTYPE svg PUBLIC "-//W3C//DTD SVG 1.1//EN" "http://www.w3.org/Graphics/SVG/1.1/DTD/svg11.dtd"><svg width="100%" height="100%" viewBox="0 0 1703 161" version="1.1" xmlns="http://www.w3.org/2000/svg" xmlns:xlink="http://www.w3.org/1999/xlink" xml:space="preserve" xmlns:serif="http://www.serif.com/" style="fill-rule:evenodd;clip-rule:evenodd;stroke-linejoin:round;stroke-miterlimit:2;"><path d="M225.568,107.677c-11.69,-2.213 -23.608,-3.2 -35.532,-2.941c6.855,-16.2 8.268,-35.732 4.136,-58.223c-0.316,-1.697 -1.908,-2.949 -3.753,-2.949c-0.307,0 -0.614,0.035 -0.913,0.104c-12.868,3.382 -25.125,8.536 -36.366,15.293c-7.312,-18.622 -19.833,-35.079 -36.256,-47.657c-1.518,-1.094 -3.697,-0.956 -5.043,0.321c-16.89,16.043 -28.182,32.527 -33.712,49.078c-11.979,-7.605 -25.192,-13.359 -39.131,-17.042c-0.299,-0.069 -0.605,-0.104 -0.913,-0.104c-1.845,0 -3.437,1.252 -3.752,2.949c-4.132,22.491 -2.704,42.02 4.136,58.223c-11.925,-0.259 -23.843,0.728 -35.533,2.941c-1.08,0.234 -1.997,0.901 -2.506,1.821c-0.511,0.917 -0.57,1.998 -0.16,2.959c16.552,38.701 48.813,47.617 75.026,47.617c13.245,-0.078 26.393,-2.114 38.956,-6.032c12.564,3.924 25.713,5.964 38.96,6.046c26.21,0 58.474,-8.919 75.026,-47.617c0.41,-0.961 0.351,-2.042 -0.16,-2.959c-0.508,-0.924 -1.427,-1.593 -2.51,-1.828Zm-43.976,-2.557c-13.945,0.801 -27.558,4.314 -39.965,10.314c-0.666,0.151 -1.275,0.471 -1.759,0.924c-7.709,4.157 -14.433,9.734 -19.762,16.392c0.166,-6.568 -0.484,-13.132 -1.939,-19.56c4.57,-18.057 16.319,-33.431 35.038,-45.729c10.509,-6.77 22.011,-12.085 34.15,-15.78c3.252,20.919 1.287,38.858 -5.763,53.439Zm-66.772,-86.18c6.706,5.545 24.53,21.933 31.781,44.267c-14.465,9.503 -25.698,22.698 -32.349,38.001c-6.169,-14.312 -16.408,-26.783 -29.606,-36.063c4.604,-15.431 14.7,-30.951 30.174,-46.205Zm-73.655,32.719c13.198,4.011 25.632,9.954 36.835,17.605c16.083,10.52 27.572,26.116 32.341,43.904c-1.458,6.428 -2.109,12.992 -1.942,19.561c-15.428,-19.347 -39.951,-26.012 -61.491,-27.627c-7.045,-14.563 -9.011,-32.506 -5.743,-53.432l0,-0.011Zm28.887,101.317c-28.514,-1.444 -48.976,-14.625 -60.893,-39.178c17.264,-2.746 79.524,-9.276 100.055,34.312c-12.656,3.719 -25.905,5.369 -39.162,4.876l-0,-0.01Zm88.401,-0c-13.257,0.488 -26.506,-1.162 -39.162,-4.876c20.527,-43.574 82.783,-37.044 100.073,-34.302c-11.935,24.553 -32.398,37.734 -60.911,39.188l-0,-0.01Z" style="fill:#34acbc;fill-rule:nonzero;"/><text x="227.656px" y="154.027px" style="font-family:'HelveticaNowText-Bold', 'Helvetica Now Text ', sans-serif;font-weight:700;font-size:200px;fill:#34acbc;">w<tspan x="416.323px 568.189px 655.656px 743.123px 853.989px 1005.86px 1108.32px 1219.19px 1371.06px 1514.32px " y="154.027px 154.027px 154.027px 154.027px 154.027px 154.027px 154.027px 154.027px 154.027px 154.027px ">ellrefresh</tspan></text></svg>