<?xml version="1.0" encoding="UTF-8" standalone="no"?><!DOCTYPE svg PUBLIC "-//W3C//DTD SVG 1.1//EN" "http://www.w3.org/Graphics/SVG/1.1/DTD/svg11.dtd"><svg width="100%" height="100%" viewBox="0 0 5541 4701" version="1.1" xmlns="http://www.w3.org/2000/svg" xmlns:xlink="http://www.w3.org/1999/xlink" xml:space="preserve" xmlns:serif="http://www.serif.com/" style="fill-rule:evenodd;clip-rule:evenodd;stroke-linejoin:round;stroke-miterlimit:2;"><path d="M2458.66,650.703c8.688,67.688 -14.375,136.5 -51.531,193.75c-37.156,57.25 -87.656,104.406 -138.938,149.375c-24.062,21.094 -49.343,43.156 -60.374,73.188c-19.126,52.125 12.968,112 59.624,142.093c46.657,30.094 104.063,37.219 159.376,42.094c-4.532,33.563 12.874,67.531 38.968,89.125c26.094,21.594 59.625,32.281 93.125,37.313c13.657,2.062 27.563,3.281 40.625,7.781c13.063,4.5 24.625,12.031 36.5,18.75c163.157,94.469 392.688,50.687 509.594,-97.188c12.951,3.345 26.273,5.037 39.648,5.037c86.985,0 158.563,-71.577 158.563,-158.562c-0,-2.284 -0.05,-4.568 -0.149,-6.85c66.032,9.375 122.563,-46.875 158.5,-102.937c13.625,-21.313 26.563,-45.719 22.375,-70.688c-3.531,-21 -18.75,-38.156 -35.156,-51.625c-40.812,-33.406 -92,-50.843 -138.343,-76.062c-110.531,-60.942 -191.201,-164.821 -222.875,-287" style="fill:#2f2c2b;fill-rule:nonzero;"/><path d="M2825,1505.89c-448.063,-0 -846.188,129.312 -1098.47,329.656c252.282,330.687 650.407,544.125 1098.47,544.125c448.063,-0 846.156,-213.438 1098.44,-544.125c-252.282,-200.344 -650.407,-329.656 -1098.44,-329.656Z" style="fill:#65bc7b;fill-rule:nonzero;"/><path d="M2825,1505.89c-224.563,-0 -436.563,32.468 -623.969,90.093c187.5,221.875 399.407,346.875 623.969,346.875c224.562,0 436.531,-125 623.938,-346.875c-187.407,-57.468 -399.407,-90.093 -623.938,-90.093Z" style="fill:#bd7b63;fill-rule:nonzero;"/><path d="M2194.41,1602.61c68.563,81 145.5,155.594 232.969,216.032c75.813,52.375 160.125,93.75 250,115.625c86.585,21.114 176.7,23.416 264.25,6.75c89.75,-17.125 175,-54.125 251.844,-102.969c87.75,-55.719 165.625,-126.344 234.656,-203.688c9.312,-10.416 18.49,-20.989 27.531,-31.718c7.75,-9.157 -5.437,-22.469 -13.25,-13.25c-67.062,79.25 -142.094,152.656 -227.562,211.968c-74.782,51.907 -157.5,92.844 -246.188,114.594c-83.879,20.705 -171.247,23.071 -256.125,6.938c-88.625,-17.032 -172.218,-53.532 -248.093,-101.938c-86.094,-54.937 -162.126,-124.562 -229.969,-200.562c-9.104,-10.188 -18.042,-20.48 -26.813,-30.875c-7.812,-9.219 -21,4.093 -13.25,13.25l0,-0.157Z" style="fill:#2f2c2b;fill-rule:nonzero;"/><rect x="2645.63" y="1066.02" width="358.719" height="601" style="fill:#bd7b63;"/><path d="M3164.91,547.516c-28.125,-77.657 -96.281,-117.282 -176.187,-142.375c-70.849,-21.841 -145.368,-29.227 -219.125,-21.719c-127.125,12.5 -268.75,54.969 -292.875,197.469c-8.282,48.875 -6.25,99.343 -7.75,148.718c-2.191,76.865 0.816,153.791 9,230.25c5.812,54.125 14.593,109.188 40.437,157.094c34.656,64.188 93.469,105.969 160.906,135.813c17.688,7.812 35.938,14.812 54.532,21.187c59.067,20.215 123.214,20.215 182.281,0c18.75,-6.25 36.844,-13.375 54.531,-21.187c67.438,-29.844 126.25,-71.625 160.906,-135.813c25.844,-47.906 34.625,-103.125 40.438,-157.094c6.956,-65.043 10.169,-130.432 9.625,-195.843c-0.5,-61.438 4.219,-127.063 -8.5,-187.5c-2.062,-9.846 -4.808,-19.537 -8.219,-29Z" style="fill:#bd7b63;fill-rule:nonzero;"/><path d="M2484.63,769.953c19.072,-26.431 29.677,-58.04 30.406,-90.625c77.813,0.938 153.375,-29.906 217.782,-73.594c64.406,-43.687 119.218,-100 173.531,-155.593c-12.782,21.468 -25.782,43.562 -30.188,68.156c-4.406,24.594 1.438,52.625 20.969,68.219c23.156,18.531 57.687,14.093 84.125,0.687c43.009,-22.214 73.138,-63.433 81.25,-111.156c2.36,53.087 12.046,105.595 28.781,156.031c4.094,12.5 9.157,25.344 19.719,32.938c10.562,7.593 28.125,6.625 33.906,-5.094c6.885,47.544 23.709,93.109 49.375,133.719c16.156,-28.125 14.188,-62.907 10.031,-95.125c-14.468,-111.625 -55.25,-228.125 -147.093,-293.188c-255.813,-181.25 -702.438,38.219 -597.719,384.375" style="fill:#2f2c2b;fill-rule:nonzero;"/><path d="M2452.08,757.137c43.748,-15.346 93.402,12.496 110.814,62.135c17.413,49.639 -3.968,102.398 -47.715,117.744c-43.748,15.346 -93.402,-12.496 -110.814,-62.135c-17.413,-49.639 3.968,-102.398 47.715,-117.744Z" style="fill:#bd7b63;"/><path d="M3087.2,819.504c17.413,-49.639 67.067,-77.48 110.814,-62.135c43.748,15.346 65.128,68.106 47.716,117.745c-17.413,49.639 -67.067,77.48 -110.814,62.135c-43.748,-15.346 -65.128,-68.106 -47.716,-117.745Z" style="fill:#bd7b63;"/><path d="M2458.56,823.766c-0.001,2.375 -1.969,5.281 -4.626,5.062c0.219,0 -2.562,-0.656 -1.281,-0.375c1.282,0.281 -0.594,-0.625 0.156,0c0.751,0.625 0.813,0.844 1.219,1.281c1,1.094 -0.75,-1.062 0.188,0.188c0.937,1.25 1.625,2.344 2.375,3.531c1.393,2.286 2.665,4.644 3.812,7.063c0.656,1.437 -0.437,-1.094 0.156,0.375c0.25,0.593 0.469,1.187 0.688,1.781c0.5,1.312 0.937,2.656 1.344,4.031c0.731,2.419 1.305,4.882 1.718,7.375c0,0.188 0.375,2.563 0.25,1.563c-0.125,-1 0,0.937 0,1.093c0,1.25 0.219,2.532 0.25,3.782c0.073,2.679 -0.01,5.361 -0.25,8.031c0,0.594 0,1.344 0,0.312c0,0.782 -0.25,1.563 -0.375,2.344c-0.25,1.406 -0.562,2.781 -0.906,4.156l15.625,-4.125l-1.094,-1.093c0.657,0.937 0.688,0.968 0,-0c-0.687,-0.969 -0.781,-1.313 -1.093,-2c0.937,2.031 -0,-0.5 -0,-1c-0,-0.5 -0,-0.719 -0.219,-1.125c0.187,1.25 0.219,1.312 -0,0.218c-0.219,-1.093 -0,-1.531 -0,-2.281c-0.219,2.438 0.344,-0.687 0.469,-1.219c-0.407,1.469 -0.188,0.313 0.312,-0.5c0.241,-0.445 0.513,-0.873 0.813,-1.281c-0.688,0.906 -0.688,0.969 -0,0c1.753,-1.758 2.739,-4.142 2.739,-6.625c0,-5.146 -4.234,-9.38 -9.38,-9.38c-2.491,-0 -4.881,0.992 -6.641,2.755c-9.667,10.262 -9.373,26.593 0.657,36.5c1.755,1.739 4.128,2.716 6.599,2.716c4.189,0 7.893,-2.808 9.026,-6.841c3.924,-16.03 2.418,-32.918 -4.282,-48c-2.89,-7.59 -7.704,-14.299 -13.968,-19.469c-2.523,-1.846 -5.569,-2.842 -8.695,-2.842c-7.674,-0 -14.126,6.001 -14.68,13.655c-0,5.143 4.232,9.375 9.375,9.375c5.105,-0.099 9.276,-4.27 9.375,-9.375l0.343,0.344Z" style="fill:#2f2c2b;fill-rule:nonzero;"/><path d="M3210.16,823.766c-0.552,-7.656 -7.004,-13.661 -14.68,-13.661c-2.982,-0 -5.895,0.906 -8.351,2.598c-6.656,4.313 -11.219,12.5 -14.312,19.719c-6.7,15.082 -8.206,31.97 -4.282,48c1.133,4.033 4.837,6.841 9.026,6.841c2.471,-0 4.844,-0.977 6.599,-2.716c10.03,-9.908 10.324,-26.238 0.657,-36.5c-1.76,-1.763 -4.15,-2.755 -6.641,-2.755c-5.146,-0 -9.38,4.234 -9.38,9.38c-0,2.483 0.986,4.867 2.739,6.625c0.719,0.812 0.719,0.75 0,-0c0.3,0.408 0.572,0.836 0.813,1.281c0.437,0.75 0.594,2.156 0.312,0.5c0,0.25 0.813,3.125 0.532,1.719c-0.282,-1.406 -0,1.469 -0,1.781c-0,2.031 0.468,-1.281 -0,0.531c-0,0.5 -1.188,3.469 -0.219,1.375c-0.313,0.688 -0.719,1.344 -1.094,2c-0.375,0.657 -0.562,0.813 0,0c-0.344,0.375 -0.719,0.75 -1.094,1.094l15.625,4.125c-0.281,-1.219 -0.593,-2.437 -0.812,-3.687c-0.219,-1.25 -0.281,-1.563 -0.406,-2.344c-0.219,-1.563 -0,1.281 -0,-0.313c-0.276,-2.667 -0.381,-5.35 -0.313,-8.031c0,-1.25 0,-2.531 0.188,-3.781l0.187,-1.875c-0.156,1.562 0,-0.5 0,-0.781c0.43,-2.652 1.036,-5.272 1.813,-7.844c0.343,-1.219 0.75,-2.406 1.187,-3.594c0.188,-0.594 0.438,-1.187 0.656,-1.781c0.219,-0.594 0.563,-1.281 0.157,-0.375c1.094,-2.444 2.346,-4.813 3.75,-7.094c0.75,-1.219 1.531,-2.375 2.375,-3.531c0.343,-0.531 0.843,-1.031 0.156,-0.25c0.375,-0.469 0.781,-0.875 1.187,-1.313c0.407,-0.437 0.844,-0.843 0,0c0.907,-0.843 0.594,-0.187 -0.437,0c-2.844,0.688 -4.969,-2.375 -5.125,-4.968c-0,5.143 4.232,9.375 9.375,9.375c5.143,-0 9.375,-4.232 9.375,-9.375l0.437,-0.375Z" style="fill:#2f2c2b;fill-rule:nonzero;"/><path d="M2657.63,846.609c-1.941,5.475 -2.996,11.225 -3.125,17.032c-0.172,2.771 0.135,5.551 0.906,8.218c1.332,4.508 4.867,8.044 9.375,9.375c4.296,1.101 8.869,-0.08 12.094,-3.125c2.197,-2.146 3.838,-4.795 4.781,-7.718c1.366,-4.386 1.697,-9.028 0.969,-13.563c-0.314,-6.497 -3.152,-12.622 -7.906,-17.062c-1.814,-1.689 -4.179,-2.666 -6.657,-2.75c-5.142,-0 -9.375,4.232 -9.375,9.375c-0.026,2.49 0.969,4.885 2.751,6.625c0.742,0.586 1.413,1.257 1.999,2l-1.437,-1.907c0.704,0.97 1.291,2.019 1.75,3.125l-0.938,-2.25c0.663,1.691 1.124,3.453 1.375,5.25l-0.343,-2.5c0.375,2.759 0.375,5.555 -0,8.313l0.343,-2.5c-0.186,1.072 -0.49,2.12 -0.906,3.125l0.969,-2.25c-0.327,0.802 -0.758,1.559 -1.281,2.25l1.468,-1.875c-0.292,0.381 -0.628,0.727 -0.999,1.031l1.906,-1.469c-0.278,0.224 -0.583,0.413 -0.907,0.563l2.251,-0.938l-0.751,0.219l2.5,-0.344c-0.351,0.061 -0.71,0.061 -1.062,0l2.5,0.344l-0.844,-0.25l2.25,0.938c-0.299,-0.148 -0.582,-0.326 -0.844,-0.532l1.907,1.469c-0.235,-0.213 -0.454,-0.443 -0.657,-0.687l1.469,1.875c-0.25,-0.361 -0.46,-0.749 -0.625,-1.157l0.938,2.25c-0.239,-0.659 -0.417,-1.339 -0.532,-2.031l0.344,2.5c-0.292,-2.936 -0.208,-5.897 0.25,-8.812l-0.344,2.5c0.441,-3.269 1.216,-6.484 2.313,-9.594c0.672,-2.433 0.334,-5.038 -0.938,-7.219c-1.679,-2.872 -4.766,-4.643 -8.093,-4.643c-4.197,0 -7.906,2.818 -9.032,6.862l0.188,-0.063Z" style="fill:#2f2c2b;fill-rule:nonzero;"/><path d="M2970.13,846.609c-1.926,5.479 -2.981,11.226 -3.125,17.032c-0.177,2.773 0.14,5.556 0.938,8.218c1.331,4.508 4.867,8.044 9.375,9.375c4.295,1.101 8.869,-0.08 12.093,-3.125c2.218,-2.129 3.862,-4.785 4.781,-7.718c1.382,-4.383 1.714,-9.029 0.969,-13.563c-0.294,-6.502 -3.136,-12.634 -7.906,-17.062c-1.806,-1.682 -4.159,-2.659 -6.625,-2.75c-2.485,0.002 -4.869,0.992 -6.625,2.75c-1.758,1.755 -2.748,4.14 -2.75,6.625c-0.041,2.492 0.956,4.894 2.75,6.625c0.742,0.586 1.414,1.257 2,2l-1.469,-1.907c0.716,0.962 1.304,2.013 1.75,3.125l-0.937,-2.25c0.676,1.686 1.138,3.45 1.375,5.25l-0.313,-2.5c0.344,2.761 0.344,5.553 0,8.313l0.313,-2.5c-0.176,1.071 -0.469,2.119 -0.875,3.125l0.937,-2.25c-0.329,0.795 -0.748,1.55 -1.25,2.25l1.469,-1.875c-0.301,0.374 -0.636,0.719 -1,1.031l1.906,-1.469c-0.287,0.21 -0.59,0.398 -0.906,0.563l2.219,-0.938l-0.719,0.219l2.5,-0.344c-0.352,0.061 -0.711,0.061 -1.062,0l2.499,0.344l-0.843,-0.25l2.25,0.938c-0.299,-0.148 -0.582,-0.326 -0.844,-0.532l1.875,1.469l-0.656,-0.687l1.468,1.875c-0.238,-0.369 -0.447,-0.755 -0.624,-1.157l0.937,2.25c-0.229,-0.66 -0.396,-1.34 -0.5,-2.031l0.344,2.5c-0.287,-2.935 -0.213,-5.895 0.218,-8.812l-0.312,2.5c0.441,-3.269 1.216,-6.484 2.312,-9.594c0.226,-0.814 0.34,-1.655 0.34,-2.5c-0,-5.149 -4.237,-9.386 -9.386,-9.386c-4.208,-0 -7.926,2.83 -9.047,6.886l0.156,-0.063Z" style="fill:#2f2c2b;fill-rule:nonzero;"/><path d="M2811.34,931.703l-0.156,15.219l11.843,-9.031c-11.256,-1.745 -22.644,2.486 -30.031,11.156c-6.906,8 -10.969,19.156 -7.156,29.531c7.468,20.156 31.469,25.906 50.906,24.656c11,-0.718 21.125,-4.437 27.563,-13.843c1.043,-1.549 1.601,-3.374 1.601,-5.241c0,-5.143 -4.232,-9.375 -9.375,-9.375c-3.569,-0 -6.84,2.037 -8.414,5.241l-1.125,1.187c-1.188,1.313 1.063,-0.469 -0.625,0.5c-0.719,0.375 -1.406,0.781 -2.094,1.188c-0.687,0.406 -1,0.437 0,-0l-1.156,0.406c-0.937,0.281 -1.875,0.531 -2.844,0.75c-0.437,-0 -2.906,0.5 -0.875,0.219c-2.021,0.254 -4.057,0.369 -6.093,0.343c-8.125,0 -16.563,-0.75 -23.25,-4.718c-2.7,-1.447 -4.885,-3.697 -6.25,-6.438c-0.907,-1.625 -0,0.625 -0.407,-1.094c-0.165,-0.576 -0.3,-1.16 -0.406,-1.75c0,1 0,0.907 0,-0.281c0,-0.375 0.344,-2.969 0,-1.375c0.198,-0.943 0.459,-1.872 0.781,-2.781c-0.437,1.219 0.719,-1.406 0.907,-1.75c0.187,-0.344 1.812,-2.625 1.093,-1.719c0.618,-0.762 1.286,-1.483 2,-2.156c0.714,-0.674 2.25,-1.969 1.219,-1.156c1.095,-0.814 2.255,-1.535 3.469,-2.157c1.406,-0.75 -0,-0.156 1.5,-0.593c-0,-0 2.969,-0.719 1.437,-0.469c0.407,-0 3.782,-0 2.5,-0.188c5.969,0.907 11.782,-2.343 11.875,-9.031l0.157,-15.219c-0.001,-5.143 -4.233,-9.375 -9.376,-9.375c-5.142,0 -9.374,4.232 -9.374,9.375l0.156,-0.031Z" style="fill:#2f2c2b;fill-rule:nonzero;"/><path d="M2049.09,2141.14c-0,-1.907 0.187,-3.844 0.25,-5.75c7.218,-158.907 13.562,-322.625 -20.938,-476.282c-114.781,49.219 -216.656,108.782 -301.875,176.438c90.421,118.516 199.338,221.703 322.563,305.594Z" style="fill:#bd7b63;fill-rule:nonzero;"/><path d="M3923.44,1835.55c-85.219,-67.656 -187.063,-127.219 -301.876,-176.438c-34.374,153.657 -28.124,317.375 -20.937,476.282l0.281,5.75c123.215,-83.892 232.122,-187.079 322.532,-305.594Z" style="fill:#bd7b63;fill-rule:nonzero;"/><path d="M2654.19,739.484c1.812,-1.718 3.656,-3.375 5.593,-4.906c-0.75,0.625 0,0 0.344,-0.219l1.5,-1.093l3.125,-2.063c2.094,-1.312 4.25,-2.562 6.437,-3.687c1.094,-0.594 2.219,-1.125 3.344,-1.657l1.688,-0.75l0.781,-0.312c4.618,-1.811 9.386,-3.212 14.25,-4.188l3.687,-0.625c1.563,-0.25 -1.312,0 0.25,0l1.844,-0.218c2.625,-0.25 5.282,-0.344 7.906,-0.344c5.143,-0 9.375,-4.232 9.375,-9.375c0,-5.143 -4.232,-9.375 -9.375,-9.375c-23.786,0.094 -46.668,9.238 -63.968,25.562c-1.765,1.759 -2.758,4.15 -2.758,6.641c0,2.491 0.993,4.882 2.758,6.641c3.685,3.518 9.564,3.518 13.25,-0l-0.032,-0.032Z" style="fill:#2f2c2b;fill-rule:nonzero;"/><path d="M2988.88,729.609c1.156,0.157 1.25,0.157 0.281,0c0.619,0.061 1.235,0.155 1.844,0.282c1.25,0.187 2.469,0.406 3.687,0.656c2.438,0.5 4.875,1.094 7.282,1.75c2.406,0.656 4.781,1.406 7.125,2.219c1.156,0.406 2.343,0.843 3.5,1.312l1.75,0.688c-0.688,-0.282 -0.688,-0.313 -0,-0c4.421,1.926 8.711,4.139 12.843,6.625c2.125,1.312 4.219,2.656 6.25,4.093c1.032,0.719 2.032,1.469 3.125,2.219c-1.156,-0.875 1.5,1.25 1.75,1.438c3.686,3.518 9.565,3.518 13.25,-0c3.125,-3.438 4.063,-9.938 0,-13.25c-17.832,-14.74 -39.53,-24.048 -62.5,-26.813c-5.142,0 -9.375,4.232 -9.375,9.375c0.131,5.093 4.283,9.244 9.375,9.375l-0.187,0.031Z" style="fill:#2f2c2b;fill-rule:nonzero;"/><path d="M2805.13,1291.33c49.52,5.636 99.678,-0.687 146.25,-18.437c13.369,-5.107 26.377,-11.11 38.938,-17.969c10.593,-5.781 1.156,-21.875 -9.376,-16.188c-41.521,22.627 -87.88,34.942 -135.156,35.907c-13.496,0.245 -26.995,-0.402 -40.406,-1.938c-5.062,-0.594 -9.375,4.719 -9.375,9.375c0.131,5.093 4.283,9.244 9.375,9.375l-0.25,-0.125Z" style="fill:#2f2c2b;fill-rule:nonzero;"/><rect x="488.625" y="1907.14" width="1581.38" height="1515.31" style="fill:#2f2c2b;"/><path d="M1932.47,3321.77l-1547,-0l-0,-1414.63l1653.84,-0l-106.844,1414.63Z" style="fill:#c6c3c2;fill-rule:nonzero;"/><path d="M2058.94,2136.77l-85.938,-0l24.563,-229.625l61.374,-0l0.001,229.625Z" style="fill:#2f2c2b;fill-rule:nonzero;"/><path d="M1825.19,3321.77l193.249,-1414.63l-1632.97,-0l-71.438,1414.63l1511.16,-0Z" style="fill:#2f2c2b;fill-rule:nonzero;"/><path d="M1745.81,3223.52l-1581.38,-0l221.032,-1316.38l1607.78,-0l-247.438,1316.38Z" style="fill:#e9e3e0;fill-rule:nonzero;"/><path d="M1581.41,3081.08l-1581.41,0l385.469,-1173.94l1581.38,-0l-385.438,1173.94Z" style="fill:#ededed;fill-rule:nonzero;"/><path d="M561.625,2193.27l-76.094,-0l18.563,-56.5l76.094,-0l-18.563,56.5Z" style="fill:#d05c60;fill-rule:nonzero;"/><path d="M743.375,2193.27l-76.094,-0l18.532,-56.5l76.093,-0l-18.531,56.5Z" style="fill:#c6c3c2;fill-rule:nonzero;"/><path d="M925.094,2193.27l-76.063,-0l18.531,-56.5l76.094,-0l-18.562,56.5Z" style="fill:#c6c3c2;fill-rule:nonzero;"/><path d="M1106.84,2193.27l-76.094,-0l18.563,-56.5l76.093,-0l-18.562,56.5Z" style="fill:#c6c3c2;fill-rule:nonzero;"/><path d="M1288.59,2193.27l-76.094,-0l18.531,-56.5l76.094,-0l-18.531,56.5Z" style="fill:#c6c3c2;fill-rule:nonzero;"/><path d="M1470.31,2193.27l-76.093,-0l18.562,-56.5l76.094,-0l-18.563,56.5Z" style="fill:#c6c3c2;fill-rule:nonzero;"/><path d="M1652.06,2193.27l-76.094,-0l18.531,-56.5l76.094,-0l-18.532,56.5Z" style="fill:#c6c3c2;fill-rule:nonzero;"/><path d="M514.313,2357.8l-76.094,-0l18.562,-56.469l76.063,0l-18.532,56.469Z" style="fill:#d05c60;fill-rule:nonzero;"/><path d="M696.063,2357.8l-76.094,-0l18.531,-56.469l76.094,0l-18.531,56.469Z" style="fill:#c6c3c2;fill-rule:nonzero;"/><path d="M877.781,2357.8l-76.094,-0l18.563,-56.469l76.094,0l-18.563,56.469Z" style="fill:#c6c3c2;fill-rule:nonzero;"/><path d="M1059.53,2357.8l-76.093,-0l18.531,-56.469l76.094,0l-18.532,56.469Z" style="fill:#c6c3c2;fill-rule:nonzero;"/><path d="M1241.25,2357.8l-76.063,-0l18.532,-56.469l76.094,0l-18.563,56.469Z" style="fill:#c6c3c2;fill-rule:nonzero;"/><path d="M1423,2357.8l-76.094,-0l18.563,-56.469l76.093,0l-18.562,56.469Z" style="fill:#c6c3c2;fill-rule:nonzero;"/><path d="M1604.75,2357.8l-76.094,-0l18.532,-56.469l76.093,0l-18.531,56.469Z" style="fill:#c6c3c2;fill-rule:nonzero;"/><path d="M467,2522.36l-76.094,0l18.531,-56.5l76.094,0l-18.531,56.5Z" style="fill:#d05c60;fill-rule:nonzero;"/><path d="M648.719,2522.36l-76.094,0l18.563,-56.5l76.093,0l-18.562,56.5Z" style="fill:#c6c3c2;fill-rule:nonzero;"/><path d="M830.469,2522.36l-76.094,0l18.563,-56.5l76.093,0l-18.562,56.5Z" style="fill:#c6c3c2;fill-rule:nonzero;"/><path d="M1012.22,2522.36l-76.094,0l18.531,-56.5l76.094,0l-18.531,56.5Z" style="fill:#c6c3c2;fill-rule:nonzero;"/><path d="M1193.94,2522.36l-76.094,0l18.562,-56.5l76.094,0l-18.563,56.5Z" style="fill:#c6c3c2;fill-rule:nonzero;"/><path d="M1375.69,2522.36l-76.094,0l18.531,-56.5l76.094,0l-18.532,56.5Z" style="fill:#c6c3c2;fill-rule:nonzero;"/><path d="M1557.41,2522.36l-76.062,0l18.531,-56.5l76.094,0l-18.563,56.5Z" style="fill:#c6c3c2;fill-rule:nonzero;"/><path d="M419.656,2686.89l-76.062,-0l18.531,-56.469l76.094,-0l-18.563,56.469Z" style="fill:#d05c60;fill-rule:nonzero;"/><path d="M601.406,2686.89l-76.093,-0l18.562,-56.469l76.094,-0l-18.563,56.469Z" style="fill:#c6c3c2;fill-rule:nonzero;"/><path d="M783.156,2686.89l-76.094,-0l18.532,-56.469l76.093,-0l-18.531,56.469Z" style="fill:#c6c3c2;fill-rule:nonzero;"/><path d="M964.875,2686.89l-76.094,-0l18.563,-56.469l76.094,-0l-18.563,56.469Z" style="fill:#c6c3c2;fill-rule:nonzero;"/><path d="M1146.63,2686.89l-76.094,-0l18.563,-56.469l76.093,-0l-18.562,56.469Z" style="fill:#c6c3c2;fill-rule:nonzero;"/><path d="M1328.38,2686.89l-76.094,-0l18.532,-56.469l76.093,-0l-18.531,56.469Z" style="fill:#c6c3c2;fill-rule:nonzero;"/><path d="M1510.09,2686.89l-76.094,-0l18.563,-56.469l76.093,-0l-18.562,56.469Z" style="fill:#c6c3c2;fill-rule:nonzero;"/><path d="M372.344,2851.45l-76.094,0l18.563,-56.5l76.093,0l-18.562,56.5Z" style="fill:#d05c60;fill-rule:nonzero;"/><path d="M554.094,2851.45l-76.094,0l18.531,-56.5l76.094,0l-18.531,56.5Z" style="fill:#c6c3c2;fill-rule:nonzero;"/><path d="M735.813,2851.45l-76.063,0l18.531,-56.5l76.094,0l-18.563,56.5Z" style="fill:#c6c3c2;fill-rule:nonzero;"/><path d="M917.563,2851.45l-76.094,0l18.562,-56.5l76.094,0l-18.563,56.5Z" style="fill:#c6c3c2;fill-rule:nonzero;"/><path d="M1099.31,2851.45l-76.094,0l18.531,-56.5l76.094,0l-18.532,56.5Z" style="fill:#c6c3c2;fill-rule:nonzero;"/><path d="M1281.03,2851.45l-76.093,0l18.562,-56.5l76.094,0l-18.563,56.5Z" style="fill:#c6c3c2;fill-rule:nonzero;"/><path d="M1462.78,2851.45l-76.094,0l18.563,-56.5l76.094,0l-18.563,56.5Z" style="fill:#c6c3c2;fill-rule:nonzero;"/><path d="M448.813,1703.92l1557.87,-0c0.042,-0 0.084,-0 0.126,-0c34.732,-0 63.312,28.58 63.312,63.312l0,140.032l-1684.38,-0l0,-140.032c-0,-34.638 28.425,-63.175 63.063,-63.312Z" style="fill:#68c6f8;fill-rule:nonzero;"/><path d="M2069.75,1761.52c-5.5,-61.313 -97.125,-61.313 -102.625,-0c-0.188,1.875 -0.281,3.781 -0.281,5.718l-0,140.032l103.125,-0l-0,-140.032c0.156,-1.937 -0.063,-3.718 -0.219,-5.718Z" style="fill:#2f2c2b;fill-rule:nonzero;"/><path d="M530.781,1751.58c-6.304,-11.824 -9.112,-25.202 -8.094,-38.562c1.037,-10.507 6.212,-20.181 14.375,-26.875c3.698,-2.996 8.06,-5.064 12.719,-6.032c1.989,-0.363 4.016,-0.468 6.032,-0.312c0.921,0.048 1.834,0.205 2.718,0.469c1.378,0.336 2.734,0.753 4.063,1.25c4.066,1.709 7.627,4.431 10.344,7.906c2.471,3.288 3.74,7.327 3.593,11.437c-0.312,12.063 18.438,12.063 18.75,0c0.688,-25.5 -25.687,-43.343 -49.437,-39.031c-25,4.5 -40.625,29.375 -42.063,53.125c-1,15.969 3.813,31.781 10.813,45.969c2.591,4.437 8.372,5.96 12.812,3.375c4.341,-2.668 5.839,-8.352 3.375,-12.813l0,0.094Z" style="fill:#2f2c2b;fill-rule:nonzero;"/><path d="M673.063,1751.58c-6.276,-11.834 -9.082,-25.204 -8.094,-38.562c1.037,-10.507 6.211,-20.181 14.375,-26.875c3.698,-2.996 8.059,-5.064 12.719,-6.032c1.988,-0.362 4.015,-0.467 6.031,-0.312c0.921,0.048 1.834,0.205 2.719,0.469c1.377,0.336 2.734,0.753 4.062,1.25c4.066,1.709 7.627,4.431 10.344,7.906c2.483,3.282 3.753,7.325 3.594,11.437c-0.313,12.063 18.437,12.063 18.75,0c0.718,-25.5 -25.688,-43.343 -49.407,-39.031c-25,4.5 -40.625,29.375 -42.094,53.125c-1,15.969 3.813,31.781 10.813,45.969c2.591,4.437 8.372,5.96 12.813,3.375c4.437,-2.591 5.96,-8.372 3.374,-12.813l0,0.094Z" style="fill:#2f2c2b;fill-rule:nonzero;"/><path d="M815.344,1751.58c-6.281,-11.831 -9.077,-25.206 -8.063,-38.562c1.024,-10.511 6.201,-20.19 14.375,-26.875c3.69,-2.99 8.04,-5.057 12.688,-6.032c1.988,-0.362 4.016,-0.467 6.031,-0.312c0.932,0.045 1.855,0.203 2.75,0.469c1.378,0.336 2.734,0.753 4.063,1.25c4.056,1.71 7.607,4.432 10.312,7.906c2.494,3.278 3.776,7.321 3.625,11.437c-0.344,12.063 18.406,12.063 18.75,0c0.688,-25.5 -25.719,-43.343 -49.437,-39.031c-25,4.5 -40.625,29.375 -42.063,53.125c-1.031,15.969 3.813,31.781 10.781,45.969c1.574,3.203 4.846,5.241 8.415,5.241c5.143,-0 9.375,-4.232 9.375,-9.375c-0,-1.867 -0.558,-3.693 -1.602,-5.241l-0,0.031Z" style="fill:#2f2c2b;fill-rule:nonzero;"/><path d="M957.625,1751.58c-6.304,-11.824 -9.112,-25.202 -8.094,-38.562c1.037,-10.507 6.212,-20.181 14.375,-26.875c3.698,-2.996 8.059,-5.064 12.719,-6.032c1.989,-0.363 4.016,-0.468 6.031,-0.312c0.922,0.048 1.835,0.205 2.719,0.469c1.378,0.336 2.734,0.753 4.063,1.25c4.065,1.709 7.627,4.431 10.343,7.906c2.472,3.288 3.741,7.327 3.594,11.437c-0.313,12.063 18.438,12.063 18.75,0c0.688,-25.5 -25.688,-43.343 -49.406,-39.031c-25,4.5 -40.625,29.375 -42.094,53.125c-1,15.969 3.813,31.781 10.813,45.969c2.59,4.437 8.371,5.96 12.812,3.375c4.341,-2.668 5.839,-8.352 3.375,-12.813l0,0.094Z" style="fill:#2f2c2b;fill-rule:nonzero;"/><path d="M1099.94,1751.58c-6.222,-11.85 -8.973,-25.219 -7.938,-38.562c1.037,-10.507 6.211,-20.181 14.375,-26.875c3.698,-2.996 8.059,-5.064 12.719,-6.032c1.988,-0.362 4.016,-0.467 6.031,-0.312c0.922,0.048 1.834,0.205 2.719,0.469c1.377,0.336 2.734,0.753 4.062,1.25c4.066,1.709 7.627,4.431 10.344,7.906c2.483,3.282 3.753,7.325 3.594,11.437c-0.313,12.063 18.437,12.063 18.75,0c0.718,-25.5 -25.688,-43.343 -49.407,-39.031c-25,4.5 -40.625,29.375 -42.093,53.125c-1,15.969 3.812,31.781 10.812,45.969c2.591,4.437 8.372,5.96 12.813,3.375c4.437,-2.591 5.96,-8.372 3.375,-12.813l-0.157,0.094Z" style="fill:#2f2c2b;fill-rule:nonzero;"/><path d="M1242.22,1751.58c-6.281,-11.831 -9.077,-25.206 -8.063,-38.562c1.024,-10.511 6.201,-20.19 14.375,-26.875c3.69,-2.99 8.04,-5.057 12.688,-6.032c1.988,-0.362 4.016,-0.467 6.031,-0.312c0.932,0.045 1.855,0.203 2.75,0.469c1.378,0.336 2.734,0.753 4.062,1.25c4.057,1.71 7.608,4.432 10.313,7.906c2.494,3.278 3.776,7.321 3.625,11.437c-0.344,12.063 18.406,12.063 18.75,0c0.687,-25.5 -25.719,-43.343 -49.438,-39.031c-25,4.5 -40.625,29.375 -42.062,53.125c-1.031,15.969 3.812,31.781 10.781,45.969c1.574,3.203 4.846,5.241 8.415,5.241c5.143,-0 9.375,-4.232 9.375,-9.375c-0,-1.867 -0.558,-3.693 -1.602,-5.241l-0,0.031Z" style="fill:#2f2c2b;fill-rule:nonzero;"/><path d="M1384.53,1751.58c-6.326,-11.817 -9.155,-25.196 -8.156,-38.562c1.037,-10.507 6.211,-20.181 14.375,-26.875c3.698,-2.996 8.059,-5.064 12.719,-6.032c1.988,-0.363 4.016,-0.468 6.031,-0.312c0.922,0.048 1.834,0.205 2.719,0.469c1.377,0.336 2.734,0.753 4.062,1.25c4.066,1.709 7.627,4.431 10.344,7.906c2.471,3.288 3.74,7.327 3.594,11.437c-0.313,12.063 18.437,12.063 18.75,0c0.687,-25.5 -25.688,-43.343 -49.407,-39.031c-25,4.5 -40.625,29.375 -42.093,53.125c-1,15.969 3.812,31.781 10.812,45.969c2.591,4.437 8.372,5.96 12.813,3.375c4.341,-2.668 5.838,-8.352 3.375,-12.813l0.062,0.094Z" style="fill:#2f2c2b;fill-rule:nonzero;"/><path d="M1526.81,1751.58c-6.276,-11.834 -9.082,-25.204 -8.094,-38.562c1.037,-10.507 6.211,-20.181 14.375,-26.875c3.698,-2.996 8.059,-5.064 12.718,-6.032c1.989,-0.362 4.016,-0.467 6.032,-0.312c0.931,0.05 1.854,0.207 2.75,0.469c1.366,0.34 2.712,0.758 4.031,1.25c4.066,1.709 7.627,4.431 10.344,7.906c2.48,3.285 3.76,7.323 3.625,11.437c-0.344,12.063 18.406,12.063 18.75,0c0.687,-25.5 -25.719,-43.343 -49.438,-39.031c-25,4.5 -40.625,29.375 -42.094,53.125c-1,15.969 3.813,31.781 10.813,45.969c2.591,4.437 8.372,5.96 12.812,3.375c4.438,-2.591 5.961,-8.372 3.375,-12.813l0.001,0.094Z" style="fill:#2f2c2b;fill-rule:nonzero;"/><path d="M1669.09,1751.58c-6.281,-11.831 -9.077,-25.206 -8.063,-38.562c1.024,-10.511 6.201,-20.19 14.375,-26.875c3.69,-2.99 8.04,-5.057 12.688,-6.032c1.988,-0.362 4.016,-0.467 6.031,-0.312c0.932,0.045 1.855,0.203 2.75,0.469c1.378,0.336 2.734,0.753 4.062,1.25c4.057,1.71 7.608,4.432 10.313,7.906c2.494,3.278 3.776,7.321 3.625,11.437c-0.344,12.063 18.406,12.063 18.75,0c0.687,-25.5 -25.719,-43.343 -49.438,-39.031c-25,4.5 -40.625,29.375 -42.062,53.125c-1.031,15.969 3.812,31.781 10.781,45.969c1.574,3.203 4.846,5.241 8.415,5.241c5.143,-0 9.375,-4.232 9.375,-9.375c-0,-1.867 -0.558,-3.693 -1.602,-5.241l-0,0.031Z" style="fill:#2f2c2b;fill-rule:nonzero;"/><path d="M1811.41,1751.58c-6.304,-11.824 -9.112,-25.202 -8.094,-38.562c1.037,-10.507 6.212,-20.181 14.376,-26.875c3.697,-2.996 8.059,-5.064 12.718,-6.032c1.989,-0.363 4.016,-0.468 6.032,-0.312c0.921,0.048 1.834,0.205 2.718,0.469c1.378,0.336 2.734,0.753 4.063,1.25c4.066,1.709 7.627,4.431 10.343,7.906c2.472,3.288 3.741,7.327 3.594,11.437c-0.312,12.063 18.438,12.063 18.75,0c0.688,-25.5 -25.687,-43.343 -49.406,-39.031c-25,4.5 -40.625,29.375 -42.094,53.125c-1,15.969 3.813,31.781 10.813,45.969c2.591,4.437 8.372,5.96 12.812,3.375c4.341,-2.668 5.839,-8.352 3.375,-12.813l0,0.094Z" style="fill:#2f2c2b;fill-rule:nonzero;"/><circle cx="4494.59" cy="2595.05" r="1045.66" style="fill:#e9e3e0;"/><path d="M4494.59,3631.33c-568.625,-0.323 -1036.35,-468.313 -1036.35,-1036.94c0,-95.524 13.2,-190.59 39.224,-282.5c28.679,-100.963 72.569,-196.971 130.156,-284.719c57.134,-86.972 126.948,-164.918 207.125,-231.25c164.212,-136.041 366.656,-217.839 579.281,-234.063c26.813,-2.083 53.667,-3.125 80.563,-3.125c12.062,0 12.093,-18.75 -0,-18.75c-578.875,0.375 -1055.01,476.813 -1055.01,1055.69c-0,97.223 13.431,193.983 39.911,287.531c58.56,205.692 178.256,388.816 343.156,525c81.843,67.591 173.362,122.526 271.5,162.969c101.571,41.697 209.056,67.205 318.532,75.594c27.281,2.125 54.624,3.125 81.999,3.125c12.063,-0 12.063,-18.75 0.001,-18.75l-0.094,0.187Z" style="fill:#2f2c2b;fill-rule:nonzero;"/><circle cx="4494.59" cy="2595.05" r="628.844" style="fill:#ddd4d0;"/><path d="M4896.44,2679.64c5.624,-30.407 -8.032,-61.157 -7.032,-92.032c0.344,-10.687 3.469,-22.718 12.875,-27.75c2.521,-1.179 5.27,-1.791 8.053,-1.791c8.104,0 15.357,5.185 17.979,12.854c6.249,-9.375 18.749,-15.625 29.499,-11.688c10.751,3.938 16.251,19.282 8.532,27.688c2.706,-2.706 6.381,-4.228 10.208,-4.228c7.92,0 14.437,6.517 14.437,14.438c0,4.741 -2.336,9.191 -6.239,11.884c5.781,-5.282 16.125,-2.438 19.969,4.406c3.844,6.844 2.125,15.625 -2.469,22.062c-4.962,6.111 -11.317,10.945 -18.531,14.094c-19.844,9.906 -41.531,15.438 -63.032,20.875" style="fill:#c6c3c2;fill-rule:nonzero;"/><path d="M4435.75,3013.02c-19.563,23.937 -22.344,57.468 -38.094,84.062c-5.437,9.375 -13.937,18.25 -24.625,18.125c-9.943,-0.639 -17.781,-8.997 -17.781,-18.961c-0,-1.092 0.094,-2.182 0.281,-3.258c-10.093,5.344 -23.937,4.594 -31.5,-3.937c-7.562,-8.531 -4.968,-24.688 5.844,-28.344c-1.448,0.473 -2.962,0.714 -4.485,0.714c-7.92,0 -14.437,-6.517 -14.437,-14.437c-0,-7.538 5.903,-13.872 13.422,-14.402c-7.625,1.844 -15.313,-5.625 -15.406,-13.437c-0.094,-7.813 5.718,-14.813 12.781,-18.188c7.281,-2.97 15.169,-4.149 23,-3.437c22.187,0.843 43.75,6.437 65.344,12" style="fill:#c6c3c2;fill-rule:nonzero;"/><path d="M4948.84,2658.2c-28.813,-37.5 -83.25,-46.312 -129.25,-35.594c-19.716,4.205 -38.328,12.51 -54.625,24.375c-16.656,12.688 -29.313,29.719 -42.75,45.75c-44.571,53.202 -98.996,97.302 -160.282,129.875c-72.156,38.25 -184.374,76.938 -189.374,173.719c-2.657,50.563 41.281,94.656 90.312,107.125c49.031,12.469 101.031,0 148.375,-17.969c125.92,-47.915 234.519,-132.693 311.563,-243.218c18.937,-27.313 36.062,-56.657 43.187,-89.094c7.125,-32.438 3.063,-68.656 -17.156,-94.969Z" style="fill:#c6c3c2;fill-rule:nonzero;"/><path d="M4869.63,2635.17c5.625,-30.375 -8.063,-61.156 -7.031,-92.031c0.343,-10.688 3.437,-22.688 12.875,-27.719c2.52,-1.18 5.27,-1.791 8.053,-1.791c8.104,-0 15.356,5.185 17.978,12.853c6.25,-9.531 18.75,-15.625 29.5,-11.687c10.75,3.937 16.25,19.25 8.531,27.656c2.698,-2.641 6.326,-4.122 10.102,-4.122c7.92,-0 14.437,6.517 14.437,14.437c0,4.696 -2.291,9.109 -6.133,11.81c5.782,-5.281 16.126,-2.437 19.969,4.375c3.844,6.813 2.125,15.625 -2.468,22.094c-4.964,6.101 -11.319,10.924 -18.532,14.062c-19.843,9.938 -41.531,15.438 -63.031,20.907" style="fill:#77353f;fill-rule:nonzero;"/><path d="M4409.03,2968.55c-19.562,23.937 -22.343,57.5 -38.093,84.094c-5.438,9.187 -13.938,18.25 -24.626,18.125c-9.943,-0.639 -17.781,-8.997 -17.781,-18.961c0,-1.092 0.094,-2.182 0.282,-3.258c-10.094,5.344 -23.938,4.594 -31.501,-3.938c-7.562,-8.531 -4.968,-24.718 5.844,-28.375c-1.448,0.474 -2.961,0.715 -4.485,0.715c-7.92,-0 -14.437,-6.518 -14.437,-14.438c-0,-7.538 5.903,-13.872 13.422,-14.402c-7.625,1.875 -15.312,-5.593 -15.406,-13.437c-0.094,-7.844 5.719,-14.813 12.781,-18.188c7.283,-2.961 15.172,-4.13 23,-3.406c22.188,0.844 43.75,6.438 65.344,12" style="fill:#77353f;fill-rule:nonzero;"/><path d="M4818.19,2381.86c-15.282,-21.312 -26.094,-68.281 -55.876,-98.75c-21.249,-21.875 -43.749,-46.5 -53.124,-74.343c-6.938,-19.969 19.343,-34.813 33.124,-18.75c3.46,3.975 6.142,8.565 7.907,13.531c-3.125,-7.188 -6.5,-15.625 -2.969,-22.688c3.531,-7.062 17.031,-7.093 17.312,0.782c-9.718,-8.25 -20.218,-18.094 -20.593,-30.844c-0.375,-12.75 17.5,-24.031 25.375,-13.969c-6.703,-13.023 -11.111,-27.105 -13.032,-41.625c-1.062,-8.094 -1.125,-17.031 3.782,-23.562c4.906,-6.532 16.468,-8.157 20.781,-1.219c-6.031,-9.063 -12.313,-18.75 -12.063,-29.813c0.251,-11.062 10.282,-22.156 20.782,-19.218c-9.345,-16.367 -5.704,-37.259 8.625,-49.5c-3.397,-29.15 -0.193,-58.694 9.375,-86.438c3.125,-8.844 7.187,-18.062 19.5,-19.219c4.978,-0.46 9.979,0.632 14.312,3.125c10.875,6.25 16.125,18.25 19.5,29.969c13.25,45.938 3.719,94.969 -5.843,141.813c1.656,-11.719 20.343,-13.094 27.718,-3.844c7.375,9.25 5.969,22.656 2.844,34.062c-7.17,25.986 -21.306,49.524 -40.875,68.063c11.688,-9.125 28.375,-18.75 39.75,-6.531c6.347,7.125 7.598,17.508 3.125,25.937c-14.353,28.106 -33.957,53.205 -57.75,73.938c5.875,-8.625 20.594,-6.969 26.625,1.531c6.031,8.5 4.625,20.594 -0.719,29.562c-5.343,8.969 -13.843,15.625 -22.156,21.875c5.063,-7.25 18.063,-2.031 19.813,6.625c1.749,8.657 -4.032,17.094 -10.719,22.875c-6.688,5.782 -14.657,10.25 -19.969,17.313c-10.156,13.625 -7.594,32.562 -4.531,49.281" style="fill:#c6c3c2;fill-rule:nonzero;"/><path d="M4787.22,2442.64c76.718,-22.157 132.687,-102.375 125,-182.313c-0.912,-7.865 3.703,-15.397 11.125,-18.156c14.968,-5.094 21.5,15.625 21.312,30.187c4.407,-6.875 5.344,-15.312 7.563,-23.156c2.218,-7.844 6.593,-16.062 14.343,-18.75c7.751,-2.687 18.001,4.938 15.063,12.5c-2.752,-35.082 5.321,-70.178 23.125,-100.531c6.25,-10.5 14.938,-21.313 28.594,-19.594c8.145,1.3 15.157,6.512 18.75,13.938c7.687,14.968 3.656,31.437 -1.125,46.593c8.192,-36.487 34.424,-66.398 69.531,-79.281c4.706,-2.051 9.913,-2.671 14.969,-1.781c9.375,2.469 13.937,13.5 14.968,23.312c2.178,22.57 -6.056,44.944 -22.343,60.719c13.937,-13.812 29.468,-28.375 49,-30.594c19.531,-2.218 41.781,15.438 36,34.375c5.125,-16.125 30.562,-18.062 41.156,-4.875c10.594,13.188 6.906,33.907 -4.563,46.344c-25.562,27.75 -70.593,17.188 -107.687,24.156c-22.469,4.219 -42.906,15.625 -62.906,26.594l-84.75,47.063c16.113,-6.264 33.503,-8.547 50.687,-6.657c3.234,0.128 6.357,1.216 8.969,3.125c3.346,3.284 4.725,8.099 3.625,12.657c-2.875,16.093 -19.813,25.812 -35.875,28.968c-16.063,3.157 -32.938,2.063 -48.406,7.344c8.625,0.438 12.5,12.5 7.968,19.969c-4.531,7.469 -13.624,10.406 -22.156,11.687c-6.431,0.968 -12.946,1.25 -19.437,0.844c-11.027,-0.909 -22.129,-0.097 -32.907,2.406c-4.641,1.089 -9.335,1.944 -14.062,2.563c-26.656,3.937 -78.875,26.406 -105.531,30.312" style="fill:#c6c3c2;fill-rule:nonzero;"/><path d="M4763.28,2427.05c-1.781,-8.469 -9.906,-13.938 -17.812,-17.438c-23.219,-10.312 -50.969,-12 -69.782,-29.062c-4.424,-3.482 -7.354,-8.526 -8.187,-14.094c-0.406,-5.531 3.875,-11.625 9.375,-11.375c7.656,0.281 12.125,11.188 19.781,10.5l-12.062,-19c-2.547,-3.444 -4.317,-7.4 -5.188,-11.594c-0.074,-0.6 -0.111,-1.203 -0.111,-1.808c0,-8.126 6.687,-14.812 14.813,-14.812c6.808,-0 12.781,4.693 14.392,11.308c-4.449,-5.681 -6.811,-12.723 -6.688,-19.938c0.532,-7.125 5.563,-14.218 12.501,-15.343c10.593,-1.657 18.468,9.375 22.124,19.593c7.085,19.777 8.884,41.065 5.219,61.75c1.384,-3.115 3.407,-5.904 5.938,-8.187c2.643,-2.219 6.436,-2.498 9.375,-0.688c1.285,1.128 2.254,2.572 2.812,4.188c2.993,7.46 2.721,15.844 -0.75,23.094c0.375,-4.719 1.532,-10.5 6.063,-11.813c4.004,-0.689 7.923,1.801 9,5.719c0.942,3.843 0.768,7.877 -0.5,11.625c-2.539,9.908 -6.209,19.492 -10.938,28.562" style="fill:#c6c3c2;fill-rule:nonzero;"/><path d="M5015.63,2469.95c6.531,-3.125 9.813,-10.844 10.656,-18.062c0.844,-7.219 0,-14.594 0.375,-21.875c1.068,-14.065 7.75,-27.125 18.531,-36.219c2.96,-2.985 7.052,-4.576 11.251,-4.375c3.788,0.995 6.982,3.552 8.781,7.031c6.937,11.313 6.531,25.531 5.875,38.781c3.781,-13.531 22.875,-19.812 33.968,-11.156c4.565,3.15 6.802,8.761 5.657,14.188c-3.125,9.375 -18.563,11.125 -19.782,20.968c4.561,-8.695 13.277,-14.47 23.063,-15.281c9.625,-0.344 19.5,6.469 21.125,15.969c2.375,14 -11.688,24.719 -23.969,31.875c15.094,-9.75 38.625,-0 42.157,17.75c3.531,17.75 -14.313,35.844 -31.969,32.719c-20.75,-3.719 -34.094,-29.875 -55.094,-28.125c-6.969,0.562 -13.469,4.281 -20.438,4.156c-6.968,-0.125 -14.468,-7.656 -10.562,-13.438c2.125,-3.125 7,-4.656 7.344,-8.468c0.25,-2.844 -2.313,-5.063 -4.625,-6.75l-24.657,-18.063" style="fill:#c6c3c2;fill-rule:nonzero;"/><path d="M4480.41,2419.27c-3.125,-27.719 7,-52.157 27.219,-78.344c22.781,-29.469 52.625,-58.938 42.031,-99.719c-8.343,-31.937 -43.968,-35.281 -68.75,-47.594c-30.687,-15.25 -43.437,-50 -72.468,-68.062c-54.126,-33.75 -131.876,-3.406 -191.626,-7.063c-70.562,-4.281 -146.437,-15.843 -206.781,30.282c-50,38.281 -54,89.906 -58.093,147.937c-3.563,50.5 -32.719,76.906 -68.563,108.656c-24.656,21.875 -47.688,47.25 -58.531,78.407c-8.719,25 -8.625,55.812 5.625,78.906c13,21.062 40.031,30.187 50,53.437c11.093,25.782 -5.907,50.75 -11.938,75.282c-5.561,23.053 -5.657,47.09 -0.281,70.187c10.25,44.969 39.656,86 80.344,108.188c50.594,27.562 114.156,25.562 165.218,0.281c49.188,-24.344 80.001,-71.656 121.407,-105.875c46.437,-38.375 113.5,-27.406 165.781,-55.25c42.188,-22.5 79.937,-57.969 101.344,-101.125c26.187,-52.781 13.562,-101.438 -10.719,-152c-5.725,-11.476 -9.516,-23.82 -11.219,-36.531Z" style="fill:#c6c3c2;fill-rule:nonzero;"/><path d="M4461.78,2355.73c-3.125,-27.718 7,-52.156 27.219,-78.343c22.781,-29.5 52.625,-58.938 42,-99.75c-8.313,-31.938 -43.938,-35.282 -68.75,-47.563c-30.719,-15.25 -43.469,-50 -72.469,-68.062c-54.156,-33.782 -131.906,-3.438 -191.656,-7.063c-70.563,-4.312 -146.438,-15.844 -206.781,30.25c-50,38.313 -54,89.938 -58.094,147.938c-3.531,50.5 -32.719,76.906 -68.531,108.687c-24.688,21.875 -47.688,47.25 -58.563,78.375c-8.718,25 -8.625,55.844 5.625,78.938c13,21.031 40.032,30.187 50,53.437c11.063,25.75 -5.937,50.75 -11.968,75.281c-5.561,23.054 -5.658,47.091 -0.282,70.188c10.282,44.937 39.657,86 80.344,108.156c50.594,27.563 114.156,25.594 165.25,0.313c49.188,-24.375 79.969,-71.657 121.375,-105.875c46.469,-38.375 113.5,-27.407 165.781,-55.282c42.219,-22.5 79.938,-57.937 101.344,-101.125c26.188,-52.781 13.594,-101.406 -10.688,-152c-5.731,-11.458 -9.502,-23.795 -11.156,-36.5Z" style="fill:#fff;fill-rule:nonzero;"/><path d="M4279.31,2296.17c-29.001,-28.906 -73.657,-43.938 -113.782,-39.969c-79.406,7.906 -182.312,87.969 -150,177.375c47.688,131.688 303.813,62.5 294.75,-71.344c-1.833,-25.076 -12.866,-48.613 -30.968,-66.062Z" style="fill:#eb9047;fill-rule:nonzero;"/><path d="M4088.88,2389.14c2.548,-5.001 5.429,-9.824 8.625,-14.438c0.656,-0.875 1.625,-2.969 2.563,-3.5l-1.407,1.813c0.532,-0.657 1.031,-1.313 1.563,-1.938c1.843,-2.25 3.781,-4.437 5.781,-6.562c3.718,-3.937 7.673,-7.641 11.844,-11.094c0.896,-0.867 1.869,-1.652 2.906,-2.344c-4.188,2.281 -0.875,0.719 0.219,0c2.343,-1.719 4.781,-3.344 7.25,-4.906c5.02,-3.157 10.239,-5.986 15.625,-8.469l3.781,-1.75c1.906,-0.812 1.687,-0.719 -0.625,0.281l2.562,-1.031c2.605,-1 5.23,-1.937 7.875,-2.812c5.738,-1.873 11.569,-3.448 17.469,-4.719c3.125,-0.688 6.25,-1.281 9.594,-1.781c0.906,-0 5.562,-1.157 0.531,-0c1.832,-0.303 3.678,-0.512 5.531,-0.625c4.938,-0.161 9.651,-2.117 13.25,-5.5c3.491,-3.529 5.466,-8.287 5.5,-13.25c-0.406,-9.375 -8.312,-19.813 -18.75,-18.75c-28.562,2.906 -56.687,10.718 -81.25,26.156c-22.322,13.78 -40.55,33.292 -52.781,56.5c-4.437,8.719 -2.562,20.719 6.719,25.625c8.562,4.531 20.906,2.625 25.656,-6.719l-0.031,-0.187Z" style="fill:#ffc871;fill-rule:nonzero;"/><path d="M4069.34,2454.8c10.286,-0 18.75,-8.464 18.75,-18.75c-0,-10.286 -8.464,-18.75 -18.75,-18.75c-10.286,-0 -18.75,8.464 -18.75,18.75c0.134,10.235 8.515,18.616 18.75,18.75Z" style="fill:#ffc871;fill-rule:nonzero;"/><path d="M4283,2300.02c9.375,20.687 5.25,46.375 -7.063,65.812c-13.249,20.875 -34.374,35.531 -56.249,46.875c-11.219,5.781 -23.313,11.25 -30.813,21.406c-6.625,9.032 -8.75,20.5 -13.156,30.782c-7.95,18.165 -22.931,32.357 -41.5,39.312c85.406,-0.719 181.843,-58.812 176.218,-141.937c-1.692,-23.289 -11.389,-45.29 -27.437,-62.25Z" style="fill:#c96f32;fill-rule:nonzero;"/><path d="M4032.81,2180.36c2.571,0 4.687,-2.116 4.687,-4.687c0,-2.572 -2.116,-4.688 -4.688,-4.688c-2.571,0 -4.687,2.116 -4.687,4.688c0,2.571 2.116,4.687 4.688,4.687Z" style="fill:#e9e3e0;fill-rule:nonzero;"/><path d="M4101.38,2175.77c2.571,-0 4.688,-2.116 4.688,-4.688c-0.001,-2.571 -2.117,-4.687 -4.688,-4.687c-2.571,-0 -4.688,2.116 -4.688,4.687c0.001,2.572 2.117,4.688 4.688,4.688Z" style="fill:#e9e3e0;fill-rule:nonzero;"/><path d="M4256.53,2160.05c7.715,-0 14.063,-6.348 14.063,-14.063c-0,-7.714 -6.348,-14.062 -14.063,-14.062c-7.714,-0 -14.062,6.348 -14.062,14.062c0.084,7.683 6.38,13.979 14.062,14.063Z" style="fill:#e9e3e0;fill-rule:nonzero;"/><path d="M3946.03,2468.27c7.715,-0 14.063,-6.348 14.063,-14.063c-0,-7.714 -6.348,-14.062 -14.063,-14.062c-7.714,-0 -14.062,6.348 -14.062,14.062c0.084,7.683 6.38,13.979 14.062,14.063Z" style="fill:#e9e3e0;fill-rule:nonzero;"/><path d="M4215.44,2623.52c7.714,-0 14.062,-6.348 14.062,-14.063c0,-7.714 -6.348,-14.062 -14.063,-14.062c-7.714,-0 -14.062,6.348 -14.062,14.062c0.084,7.683 6.38,13.979 14.063,14.063Z" style="fill:#e9e3e0;fill-rule:nonzero;"/><path d="M4352.44,2470.55c7.714,-0 14.062,-6.348 14.062,-14.063c0,-7.714 -6.348,-14.062 -14.063,-14.062c-7.714,-0 -14.062,6.348 -14.062,14.062c0.084,7.683 6.38,13.979 14.063,14.063Z" style="fill:#e9e3e0;fill-rule:nonzero;"/><path d="M4338.88,2255.8c12.094,-0 12.094,-18.75 0,-18.75c-12.094,-0 -12.063,18.75 0,18.75Z" style="fill:#e9e3e0;fill-rule:nonzero;"/><path d="M4055.63,2577.73c12.062,0 12.094,-18.75 0,-18.75c-12.094,0 -12.063,18.75 0,18.75Z" style="fill:#e9e3e0;fill-rule:nonzero;"/><path d="M4108.16,2568.58c12.063,0 12.063,-18.75 0,-18.75c-12.062,0 -12.093,18.75 0,18.75Z" style="fill:#e9e3e0;fill-rule:nonzero;"/><path d="M4069.34,2230.7c12.062,0 12.062,-18.75 -0,-18.75c-12.063,0 -12.094,18.75 -0,18.75Z" style="fill:#e9e3e0;fill-rule:nonzero;"/><path d="M3962.03,2609.58c2.572,0 4.688,-2.116 4.688,-4.687c-0,-2.572 -2.116,-4.688 -4.688,-4.688c-2.571,0 -4.687,2.116 -4.687,4.688c-0,2.571 2.116,4.687 4.687,4.687Z" style="fill:#e9e3e0;fill-rule:nonzero;"/><path d="M3987.13,2554.77c2.571,-0 4.688,-2.116 4.688,-4.688c-0.001,-2.571 -2.117,-4.687 -4.688,-4.687c-2.571,-0 -4.688,2.116 -4.688,4.687c0.001,2.572 2.117,4.688 4.688,4.688Z" style="fill:#e9e3e0;fill-rule:nonzero;"/><path d="M4005.41,2620.98c2.572,0 4.688,-2.116 4.688,-4.687c-0,-2.572 -2.116,-4.688 -4.688,-4.688c-2.571,0 -4.687,2.116 -4.687,4.688c-0,2.571 2.116,4.687 4.687,4.687Z" style="fill:#e9e3e0;fill-rule:nonzero;"/><path d="M4309.06,2545.64c2.571,-0 4.687,-2.116 4.687,-4.688c0,-2.571 -2.116,-4.687 -4.688,-4.687c-2.571,-0 -4.687,2.116 -4.687,4.687c0,2.572 2.116,4.688 4.688,4.688Z" style="fill:#e9e3e0;fill-rule:nonzero;"/><path d="M4384.41,2394.95c2.572,0 4.688,-2.116 4.688,-4.687c-0,-2.572 -2.116,-4.688 -4.688,-4.688c-2.571,0 -4.687,2.116 -4.687,4.688c-0,2.571 2.116,4.687 4.687,4.687Z" style="fill:#e9e3e0;fill-rule:nonzero;"/><path d="M4416.34,2447.45c2.571,0 4.687,-2.116 4.687,-4.687c0,-2.572 -2.116,-4.688 -4.687,-4.688c-2.572,0 -4.688,2.116 -4.688,4.688c0,2.571 2.116,4.687 4.688,4.687Z" style="fill:#e9e3e0;fill-rule:nonzero;"/><path d="M4418.66,2237.42c2.572,-0 4.688,-2.116 4.688,-4.688c-0,-2.571 -2.116,-4.687 -4.688,-4.687c-2.571,-0 -4.687,2.116 -4.687,4.687c-0,2.572 2.116,4.688 4.687,4.688Z" style="fill:#e9e3e0;fill-rule:nonzero;"/><path d="M4819.03,2368.8c-18.218,-18.75 -35.812,-63.75 -69.718,-89.5c-24.219,-18.438 -50.001,-39.656 -63.594,-65.625c-9.782,-18.75 14.031,-37.281 30.031,-23.438c3.997,3.449 7.315,7.614 9.781,12.282c-4.25,-6.657 -8.687,-14.5 -6.25,-21.875c2.438,-7.375 15.813,-9.532 17.219,-1.75c-10.812,-6.782 -22.625,-14.969 -25,-27.532c-2.375,-12.562 13.813,-26.312 23.063,-17.531c-8.547,-11.887 -14.965,-25.168 -18.969,-39.25c-2.25,-7.844 -3.625,-16.687 0.281,-23.844c3.906,-7.156 15.094,-10.5 20.375,-4.25c-7.281,-8.093 -14.937,-16.906 -16.312,-27.75c-1.375,-10.843 6.968,-23.406 17.781,-22.062c-11.657,-14.808 -11.129,-36.01 1.25,-50.219c-7.512,-28.361 -8.58,-58.047 -3.125,-86.875c1.75,-9.187 4.469,-18.937 16.5,-21.875c4.858,-1.176 9.965,-0.793 14.594,1.094c11.718,4.687 18.75,15.625 23.718,26.781c19.813,43.5 17.594,93.406 14.969,141.156c0,-11.843 18.219,-15.968 26.844,-7.875c8.625,8.094 9.375,21.532 7.812,33.282c-3.283,26.755 -13.821,52.111 -30.468,73.312c10.218,-10.75 25.343,-22.531 38.343,-12.281c7.342,6.1 10.121,16.188 6.938,25.187c-10.074,29.911 -25.796,57.611 -46.313,81.594c4.563,-9.375 19.344,-9.906 26.594,-2.375c7.25,7.531 7.563,19.719 3.594,29.344c-3.969,9.625 -11.438,17.375 -18.75,25c3.937,-7.906 17.562,-4.688 20.562,3.625c3,8.312 -1.468,17.531 -7.25,24.219c-5.781,6.687 -13.031,12.281 -17.218,20.062c-8.063,14.938 -2.75,33.281 2.718,49.406" style="fill:#82b579;fill-rule:nonzero;"/><path d="M4797.28,2433.45c72.657,-33.156 116.282,-120.719 97.125,-198.687c-2.027,-7.654 1.442,-15.771 8.375,-19.594c14.032,-7.219 23.532,12.25 25.469,26.75c3.344,-7.438 3.125,-15.938 4.094,-24.031c0.968,-8.094 4.187,-16.844 11.5,-20.469c7.312,-3.625 18.5,2.25 16.718,10.219c-7.844,-34.295 -4.997,-70.184 8.157,-102.813c4.593,-11.312 11.656,-23.281 25.406,-23.594c8.278,0.07 16.017,4.196 20.688,11.032c9.812,13.687 8.218,30.562 5.718,46.25c2.769,-37.292 24.344,-70.716 57.188,-88.594c4.346,-2.724 9.405,-4.094 14.531,-3.938c9.781,1.063 15.781,11.313 18.219,20.844c5.446,22.022 0.576,45.367 -13.219,63.375c11.781,-15.625 25,-32.406 44,-37.5c19,-5.094 43.75,9.156 40.625,28.563c2.687,-16.688 27.594,-22.344 40,-10.813c12.406,11.531 11.781,32.531 2.281,46.5c-21.219,31.25 -67.344,27.344 -103.125,39.656c-21.625,7.469 -40.187,21.594 -58.344,35.532l-76.937,58.968c15.026,-8.537 31.887,-13.339 49.156,-14c3.217,-0.405 6.483,0.161 9.375,1.625c3.748,2.853 5.732,7.475 5.219,12.157c-0.5,16.343 -15.844,28.437 -31.25,33.906c-15.406,5.469 -32.281,6.844 -46.875,14.344c8.594,-0.844 14.156,10.656 10.813,18.75c-3.344,8.093 -11.969,12.281 -20.219,14.812c-6.229,1.89 -12.639,3.115 -19.125,3.656c-11.037,0.732 -21.895,3.167 -32.188,7.219c-4.375,1.813 -9,3.125 -13.531,4.594c-25.781,7.781 -74.156,37.656 -100,45.437" style="fill:#82b579;fill-rule:nonzero;"/><path d="M4771.31,2421.52c-3.126,-8.094 -11.844,-12.5 -20.157,-14.657c-24.468,-6.781 -52.187,-4.406 -73.281,-18.531c-4.889,-2.788 -8.534,-7.339 -10.188,-12.719c-1.156,-5.437 2.157,-12.062 7.688,-12.5c7.625,-0.812 13.656,9.375 21.125,7.5l-14.719,-17c-3.012,-3.049 -5.345,-6.702 -6.843,-10.718c-0.504,-1.512 -0.761,-3.095 -0.761,-4.688c-0,-8.132 6.691,-14.823 14.823,-14.823c6.364,-0 12.05,4.098 14.063,10.136c-5.161,-5.005 -8.468,-11.619 -9.376,-18.75c-0.499,-7.125 3.407,-14.907 10.251,-17.032c10.218,-3.125 19.656,6.719 24.718,16.157c9.912,18.521 14.814,39.314 14.219,60.312c0.894,-3.287 2.482,-6.346 4.656,-8.969c2.319,-2.677 6.147,-3.519 9.375,-2.062c1.449,0.911 2.626,2.196 3.407,3.719c4.052,6.947 5.005,15.286 2.624,22.968c-0.343,-4.718 0,-10.625 4.25,-12.5c3.873,-1.26 8.121,0.626 9.782,4.344c1.483,3.675 1.884,7.699 1.156,11.594c-1.031,10.173 -3.255,20.19 -6.625,29.844" style="fill:#82b579;fill-rule:nonzero;"/><path d="M5016.31,2445.39c5.968,-4.188 8.093,-12.157 7.906,-19.438c-0.188,-7.281 -2.282,-14.375 -2.844,-21.656c-0.999,-14.066 3.699,-27.959 13.031,-38.531c2.495,-3.387 6.315,-5.558 10.5,-5.969c3.894,0.418 7.425,2.491 9.688,5.687c8.562,10.157 10.218,24.282 11.5,37.5c1.781,-13.968 19.75,-22.968 31.968,-16.031c4.975,2.458 8.012,7.68 7.688,13.219c-1.594,9.781 -16.75,13.719 -16.5,23.625c3.243,-9.257 11.012,-16.235 20.562,-18.469c9.375,-1.781 20.25,3.531 23.251,12.688c4.406,13.5 -7.969,26.156 -19.032,35.031c13.469,-11.844 38.188,-5.469 44.282,11.406c6.093,16.875 -8.907,37.5 -26.844,37.031c-21.032,-0.625 -38.094,-24.562 -58.625,-19.843c-6.813,1.562 -12.688,6.25 -19.625,7.125c-6.938,0.875 -15.407,-5.469 -12.5,-11.782c1.656,-3.437 6.25,-5.625 6.031,-9.375c-0.187,-2.843 -3.125,-4.687 -5.562,-6.031l-27.032,-14.219" style="fill:#82b579;fill-rule:nonzero;"/><path d="M3837.19,2671.92c3.124,72.75 51.062,143.156 121.187,166.5c35.781,11.875 75,8.781 110.5,-3.125c37.219,-12.5 69.969,-33.844 99.625,-59.188c33.313,-28.468 62.5,-61.281 93.75,-92.093c8.594,-8.5 -4.656,-21.875 -13.25,-13.25c-51.719,51.218 -100.188,111.312 -168.75,140.437c-31.25,13.219 -66.781,20.094 -100.438,13.281c-34.125,-6.937 -63.999,-27.375 -85.874,-54.093c-22.785,-27.993 -35.998,-62.571 -37.688,-98.625c-0.099,-5.105 -4.27,-9.276 -9.375,-9.375c-5.143,-0 -9.375,4.232 -9.375,9.375l-0.313,0.156Z" style="fill:#2f2c2b;fill-rule:nonzero;"/><path d="M4327.84,2674.05c36.482,-6.949 70.976,-21.891 101,-43.75c15.338,-11.057 29.404,-23.78 41.937,-37.938c13.077,-14.414 24.098,-30.567 32.75,-48c8.602,-18.082 12.36,-38.091 10.906,-58.062c-1.869,-19.145 -5.905,-38.016 -12.031,-56.25c-11.062,-35.875 -25.843,-73.406 -17.343,-111.438c2.358,-10.686 6.264,-20.972 11.593,-30.531c6.114,-10.119 12.999,-19.752 20.594,-28.812c14.875,-18.969 29.75,-41.157 26.844,-66.469c-0.146,-5.086 -4.289,-9.229 -9.375,-9.375c-4.625,-0 -9.938,4.312 -9.375,9.375c2.312,20.281 -9.375,37.937 -21.344,53.125c-6.562,8.375 -13.437,16.625 -19.281,25.562c-16.704,25.836 -23.767,56.756 -19.938,87.282c2.622,18.842 6.985,37.4 13.032,55.437c10.499,33.625 24.562,70 15.187,105.188c-4.844,18.218 -15.625,34.812 -27,49.562c-10.919,13.944 -23.349,26.636 -37.062,37.844c-30.674,25.032 -67.147,41.968 -106.063,49.25c-4.062,1.112 -6.899,4.831 -6.899,9.042c0,0.841 0.113,1.678 0.337,2.489c1.472,4.88 6.589,7.778 11.531,6.531l-0,-0.062Z" style="fill:#2f2c2b;fill-rule:nonzero;"/><path d="M4678.06,2206.05c3.124,31.812 27.781,52.906 52.812,69.344c12.5,8.187 25.531,15.906 36.344,26.375c10.172,9.775 18.031,21.702 23,34.906c2.937,7.937 3.656,16.719 7.093,24.437c2.681,6.954 9.402,11.567 16.854,11.567c2.83,-0 5.621,-0.665 8.146,-1.942c2.583,-1.741 4.134,-4.659 4.134,-7.773c0,-5.143 -4.232,-9.375 -9.375,-9.375c-1.433,0 -2.847,0.329 -4.133,0.961c2.874,-1.5 2.374,0.812 1.593,-0.656c0.344,0.656 -0.25,-1.125 -0.25,-1.219c-1,-3.313 -1.531,-6.719 -2.375,-10.063c-1.716,-6.737 -4.038,-13.305 -6.937,-19.625c-5.639,-12.543 -13.554,-23.934 -23.344,-33.593c-19.688,-19.469 -46.25,-29.938 -65.906,-49.375c-9.375,-9.375 -17.469,-21.032 -18.75,-33.969c-0.131,-5.093 -4.283,-9.244 -9.375,-9.375c-5.143,-0 -9.375,4.232 -9.375,9.375l-0.157,-0Z" style="fill:#2f2c2b;fill-rule:nonzero;"/><path d="M4801.72,2436.02c4.446,7.521 13.462,11.14 21.875,8.781c8.25,-1.969 14.687,-8.688 21.031,-13.938c12.106,-10.318 25.058,-19.601 38.719,-27.75c27.375,-15.625 59.375,-18.75 87.718,-32.093c7.594,-3.532 16.251,-7.875 21.594,-14.469c2.881,-3.201 4.476,-7.358 4.476,-11.665c-0,-5.754 -2.849,-11.151 -7.601,-14.398c-1.44,-0.847 -3.082,-1.294 -4.753,-1.294c-3.325,-0 -6.411,1.769 -8.09,4.638c-2.484,4.467 -0.984,10.175 3.374,12.844c-0.562,-0.375 -1.156,-1.75 -1.562,-1.969c0.375,0.188 -0.813,-1.531 0,0c0.375,0.688 -0.156,0 0.219,-0.375c-1.954,2.102 -4.259,3.847 -6.813,5.156c-5.212,3.169 -10.692,5.877 -16.375,8.094c-12.187,4.75 -25,7.969 -37.5,11.625c-13.156,3.59 -25.926,8.468 -38.125,14.563c-12.359,6.673 -24.094,14.444 -35.062,23.218c-6.25,4.782 -12.188,9.719 -18.188,14.688c-2.064,1.864 -4.34,3.479 -6.781,4.812c-1.094,0.563 -1.688,0.469 -0.781,0.313l-1.032,-0c-0.562,0.969 -0.437,-0.844 0.001,-0c-0.001,0.219 1.187,2.031 -0.001,-0c-1.573,-3.203 -4.845,-5.241 -8.414,-5.241c-5.143,-0 -9.375,4.232 -9.375,9.375c0,1.867 0.558,3.693 1.602,5.241l-0.156,-0.156Z" style="fill:#2f2c2b;fill-rule:nonzero;"/><path d="M4660.41,2373.61c-0.187,11.875 6.875,21.875 16.469,28.125c10.469,6.969 23.5,7.938 35.719,8.219c9.969,0.219 20.844,-0.25 29.718,4.625c4.469,2.469 7.063,6.844 11.532,9.375c2.094,1.223 4.476,1.867 6.901,1.867c4.88,0 9.406,-2.61 11.849,-6.836c2.463,-4.46 0.966,-10.144 -3.375,-12.812c-4.441,-2.585 -10.222,-1.062 -12.813,3.375c1.042,-1.874 3.242,-2.806 5.313,-2.25c0.398,0.03 0.788,0.125 1.156,0.281c0.368,0.156 -1.812,-1.906 -1.937,-2.031c-1.778,-1.856 -3.736,-3.531 -5.844,-5c-3.59,-2.493 -7.528,-4.441 -11.688,-5.781c-9.136,-2.628 -18.621,-3.84 -28.125,-3.594c-8.375,-0.156 -18.375,-0 -25.593,-3.688c-3.263,-1.494 -6.115,-3.757 -8.313,-6.593c-1.607,-2.151 -2.434,-4.786 -2.344,-7.469c0.188,-12.063 -18.562,-12.063 -18.75,-0l0.125,0.187Z" style="fill:#2f2c2b;fill-rule:nonzero;"/><path d="M5018.84,2426.02c-6.38,4.11 -9.215,12.061 -6.875,19.281c2.125,7.094 8.156,11.469 14.625,14.375c2.514,0.935 4.914,2.151 7.156,3.625c0.938,0.75 0.719,0.469 0.938,0.969c0.218,0.5 -0.001,0.468 -0.001,-0c0.001,-0.469 -0.406,1.625 -0.5,2.031c-2.125,7.156 -4.656,13.937 -0.75,21.156c3.964,6.576 11.073,10.64 18.75,10.719c7.844,0.25 15.188,-3.125 22.438,-5.594c6.25,-2.031 12.938,-4.187 19.375,-2.344c6.437,1.844 11.5,6.844 16.969,10.313c7.018,4.946 15.64,7.087 24.156,6c8.172,-1.388 14.927,-7.214 17.5,-15.094c0.225,-0.814 0.339,-1.655 0.339,-2.5c0,-5.149 -4.237,-9.386 -9.386,-9.386c-4.208,0 -7.926,2.83 -9.047,6.886c0.375,-1.062 -0.75,1 0,0.156c-0.718,0.844 -0.375,0.657 -1.718,1.219c-1.344,0.563 -0.313,0 -0.001,0c-0.486,0.173 -0.989,0.298 -1.499,0.375c-1.126,0 -0.282,0 -0.001,0c-0.686,0.063 -1.376,0.063 -2.062,0c-4.781,-0.687 -9.156,-4.187 -12.969,-6.875c-4.809,-3.707 -10.137,-6.686 -15.812,-8.844c-6.411,-1.913 -13.196,-2.214 -19.75,-0.875c-5.974,1.199 -11.831,2.924 -17.5,5.157c-2.598,1.024 -5.273,1.839 -8,2.437c-1.496,0.177 -3.012,0.071 -4.469,-0.312c-2.313,-0.625 -0.813,-0.688 -0.625,-0.407c0.188,0.282 0.438,0.469 0,0c-0.438,-0.468 0,-0.218 0,0.313c0.563,-2.362 1.294,-4.68 2.187,-6.938c2.186,-5.897 1.54,-12.483 -1.749,-17.843c-3.813,-5.625 -9.376,-8.313 -15.376,-11.063c-1.224,-0.539 -2.414,-1.155 -3.562,-1.844c-1.148,-0.688 -1.625,-1.062 -1.125,-0.562c0,-0 -1.219,-1.281 -0.25,-0.281c-0.281,-0.282 -0.438,-1.469 0,-0.25c0,-0 -0.375,1.375 0,0.25c0.375,-1.125 -1,1.562 -1.563,1.906c4.359,-2.669 5.859,-8.377 3.376,-12.844c-2.602,-4.426 -8.38,-5.934 -12.813,-3.344l-0.406,0.032Z" style="fill:#2f2c2b;fill-rule:nonzero;"/><path d="M4922,2613.73c-28.781,-37.5 -83.219,-46.312 -129.219,-35.562c-19.715,4.205 -38.328,12.51 -54.625,24.375c-16.656,12.5 -29.312,29.687 -42.75,45.719c-44.553,53.218 -98.982,97.322 -160.281,129.875c-72.156,38.281 -184.375,76.937 -189.375,173.75c-2.656,50.531 41.281,94.625 90.313,107.093c49.031,12.469 101.031,0 148.375,-17.937c125.916,-47.938 234.512,-132.723 311.562,-243.25c18.938,-27.281 36.063,-56.625 43.188,-89.094c7.124,-32.469 3.062,-68.625 -17.188,-94.969Z" style="fill:#8e3943;fill-rule:nonzero;"/><path d="M4586.91,3050.08c49.683,-18.783 96.979,-43.359 140.906,-73.219c69,-46.743 128.767,-105.842 176.282,-174.312c1.044,-1.548 1.602,-3.374 1.602,-5.241c-0,-5.143 -4.232,-9.375 -9.375,-9.375c-3.569,-0 -6.841,2.038 -8.415,5.241c-58.968,84.366 -136.82,153.818 -227.344,202.812c-25.361,13.797 -51.63,25.856 -78.625,36.094c-4.871,1.486 -7.773,6.584 -6.562,11.531c1.112,4.062 4.831,6.899 9.042,6.899c0.841,0 1.678,-0.113 2.489,-0.336l0,-0.094Z" style="fill:#2f2c2b;fill-rule:nonzero;"/><path d="M4467.69,2906.77c2.062,0.781 -0.751,-0.469 1.031,0.437c0.781,0.375 1.531,0.75 2.312,1.188c1.469,0.812 2.844,1.75 4.282,2.656c1.437,0.906 -0.907,-0.844 0.718,0.531l1.563,1.344c1.093,1 2.156,2.062 3.125,3.125c0.562,0.594 1.093,1.187 1.625,1.812c-0,0 1.781,2.25 0.562,0.657c1,1.312 1.906,2.656 2.813,4.031c1.713,2.683 3.278,5.458 4.687,8.312c0.688,1.407 1.375,2.782 2,4.188l1.032,2.344c1.124,2.531 -0.688,-1.719 0.374,0.875c1.063,2.593 2.407,6.031 3.563,9.093c2.5,6.563 4.969,13.125 7.781,19.563c2,4.625 8.813,5.687 12.813,3.344c4.341,-2.668 5.838,-8.353 3.375,-12.813c-0.25,-0.594 -0.938,-2.25 -0.313,-0.719c-0.375,-0.875 -0.718,-1.781 -1.093,-2.656l-1.782,-4.625l-3.75,-9.844c-2.566,-6.985 -5.551,-13.81 -8.937,-20.437c-6.86,-13.836 -18.545,-24.699 -32.844,-30.531c-0.811,-0.224 -1.648,-0.337 -2.489,-0.337c-4.211,0 -7.93,2.838 -9.042,6.899c-1.247,4.942 1.651,10.059 6.531,11.531l0.063,0.032Z" style="fill:#77353f;fill-rule:nonzero;"/><path d="M4556.53,2861.33c1.782,1.094 3.532,2.25 5.219,3.5c0.438,0.313 2,1.719 0,0l0.969,0.781c0.843,0.657 1.625,1.313 2.437,2.032c3.251,2.863 6.252,6 8.969,9.375l1,1.218c1.094,1.344 -0.813,-1.093 0,0c0.813,1.094 1.25,1.688 1.844,2.563c1.187,1.719 2.312,3.5 3.375,5.312c1.062,1.813 2.031,3.688 2.906,5.563l0.687,1.437c0,0.282 0.844,2 0.282,0.625c-0.563,-1.375 -0,0.313 0.218,0.625c0.219,0.313 0.469,1.157 0.688,1.75c1.445,4.903 6.578,7.824 11.531,6.563c4.5,-1.469 8.375,-6.625 6.531,-11.531c-6.915,-18.992 -20.015,-35.121 -37.187,-45.782c-1.548,-1.044 -3.374,-1.601 -5.241,-1.601c-5.143,-0 -9.375,4.232 -9.375,9.375c-0,3.568 2.038,6.84 5.241,8.414l-0.094,-0.219Z" style="fill:#77353f;fill-rule:nonzero;"/><path d="M4649,2835.39l0.781,-0.75c0.912,-0.852 1.581,-1.93 1.938,-3.125c1.081,-2.294 1.081,-4.956 -0,-7.25c-0.357,-1.195 -1.026,-2.274 -1.938,-3.125l-1.906,-1.469c-1.432,-0.837 -3.06,-1.279 -4.719,-1.281l-2.5,0.343c-1.563,0.425 -2.986,1.255 -4.125,2.407l-0.781,0.75c-2.738,2.658 -3.516,6.775 -1.937,10.25c0.357,1.195 1.025,2.273 1.937,3.125l1.906,1.468c1.432,0.837 3.061,1.279 4.719,1.282l2.5,-0.313c1.563,-0.441 2.984,-1.281 4.125,-2.437l0,0.125Z" style="fill:#77353f;fill-rule:nonzero;"/><path d="M4671.38,2772.42l2.625,1.875l1.281,0.937c0.938,0.688 -1.468,-1.187 0,0c1.469,1.188 3.282,2.688 4.875,4.125c3.186,2.842 6.191,5.88 9,9.094c0.688,0.813 1.407,1.625 2.063,2.438c0.281,0.343 0.562,0.656 0.812,1c0.25,0.343 1.469,2.156 0,-0c1.094,1.656 2.407,3.125 3.563,4.906c2.434,3.629 4.656,7.396 6.656,11.281c2.591,4.437 8.372,5.96 12.813,3.375c4.354,-2.657 5.855,-8.355 3.375,-12.812c-8.817,-17.016 -21.699,-31.594 -37.5,-42.438c-4.441,-2.585 -10.222,-1.062 -12.813,3.375c-2.469,4.452 -0.986,10.135 3.344,12.813l-0.094,0.031Z" style="fill:#77353f;fill-rule:nonzero;"/><path d="M4728.94,2711.73c2.214,0.461 4.396,1.067 6.531,1.813c0.25,-0 2.25,0.844 1,0.344c-1.25,-0.5 0.406,0.187 0.625,0.281l3.125,1.531c2.002,1.09 3.942,2.29 5.812,3.594l1.563,1.094c1.156,0.812 -1.688,-1.375 0.218,-0l2.594,2.218c3.739,3.333 7.237,6.925 10.469,10.75c1.656,1.938 3.125,3.907 4.812,5.875l2.344,3.125c-0.594,-0.75 -0.375,-0.5 0,0c0.375,0.5 1.031,1.344 1.531,2c1.317,2.048 3.307,3.573 5.625,4.313c2.435,0.651 5.032,0.314 7.219,-0.938c3.844,-2.468 6.563,-8.656 3.375,-12.843c-13.531,-17.625 -28.75,-36.688 -51.812,-41.344c-0.731,-0.179 -1.48,-0.27 -2.233,-0.27c-5.143,0 -9.375,4.232 -9.375,9.375c0,4.1 2.69,7.747 6.608,8.957l-0.032,0.125Z" style="fill:#77353f;fill-rule:nonzero;"/><path d="M4806.78,2675.14c12.063,-0 12.063,-18.75 0,-18.75c-12.062,-0 -12.093,18.75 0,18.75Z" style="fill:#77353f;fill-rule:nonzero;"/><path d="M4546.5,2041.83c2.571,0 4.688,-2.116 4.688,-4.687c-0.001,-2.572 -2.117,-4.688 -4.688,-4.688c-2.571,0 -4.688,2.116 -4.688,4.688c0.001,2.571 2.117,4.687 4.688,4.687Z" style="fill:#eb9047;fill-rule:nonzero;"/><path d="M4619.56,2082.92c2.571,-0 4.687,-2.116 4.687,-4.688c0,-2.571 -2.116,-4.687 -4.688,-4.687c-2.571,-0 -4.687,2.116 -4.687,4.687c0,2.572 2.116,4.688 4.688,4.688Z" style="fill:#eb9047;fill-rule:nonzero;"/><path d="M4633.25,2049.45c2.571,0 4.688,-2.116 4.688,-4.687c-0.001,-2.572 -2.117,-4.688 -4.688,-4.688c-2.571,0 -4.688,2.116 -4.688,4.688c0.001,2.571 2.117,4.687 4.688,4.687Z" style="fill:#eb9047;fill-rule:nonzero;"/><path d="M4546.34,2092.08l1.687,0c0.618,0.007 1.228,-0.132 1.782,-0.406c1.165,-0.416 2.084,-1.335 2.499,-2.5c0.275,-0.553 0.414,-1.164 0.407,-1.781l-0.188,-1.25c-0.205,-0.781 -0.615,-1.494 -1.187,-2.063l-0.969,-0.75c-0.707,-0.423 -1.519,-0.64 -2.344,-0.625l-1.531,0c-0.63,-0.04 -1.259,0.101 -1.813,0.406c-1.137,0.431 -2.037,1.331 -2.468,2.469c-0.306,0.553 -0.447,1.182 -0.407,1.813l0.001,1.218c0.211,0.795 0.632,1.518 1.218,2.094l0.938,0.719c0.723,0.416 1.54,0.642 2.375,0.656Z" style="fill:#eb9047;fill-rule:nonzero;"/><path d="M4627.16,2142.3c2.572,-0 4.688,-2.116 4.688,-4.688c-0,-2.571 -2.116,-4.687 -4.688,-4.687c-2.571,-0 -4.687,2.116 -4.687,4.687c-0,2.572 2.116,4.688 4.687,4.688Z" style="fill:#eb9047;fill-rule:nonzero;"/><path d="M4605.84,2591.3c2.571,-0 4.687,-2.116 4.687,-4.688c0,-2.571 -2.116,-4.687 -4.687,-4.687c-2.572,-0 -4.688,2.116 -4.688,4.687c0,2.572 2.116,4.688 4.688,4.688Z" style="fill:#eb9047;fill-rule:nonzero;"/><path d="M4404.94,2767.11c2.571,0 4.687,-2.116 4.687,-4.687c0,-2.572 -2.116,-4.688 -4.688,-4.688c-2.571,0 -4.687,2.116 -4.687,4.688c0,2.571 2.116,4.687 4.688,4.687Z" style="fill:#eb9047;fill-rule:nonzero;"/><path d="M4496.28,2696.33c2.572,0 4.688,-2.116 4.688,-4.687c-0,-2.572 -2.116,-4.688 -4.688,-4.688c-2.571,0 -4.687,2.116 -4.687,4.688c-0,2.571 2.116,4.687 4.687,4.687Z" style="fill:#eb9047;fill-rule:nonzero;"/><path d="M4489.41,2755.67c2.572,-0 4.688,-2.116 4.688,-4.688c-0,-2.571 -2.116,-4.687 -4.688,-4.687c-2.571,-0 -4.687,2.116 -4.687,4.687c-0,2.572 2.116,4.688 4.687,4.688Z" style="fill:#eb9047;fill-rule:nonzero;"/><path d="M4567,2705.45c2.571,0 4.688,-2.116 4.688,-4.687c-0.001,-2.572 -2.117,-4.688 -4.688,-4.688c-2.571,0 -4.688,2.116 -4.688,4.688c0.001,2.571 2.117,4.687 4.688,4.687Z" style="fill:#eb9047;fill-rule:nonzero;"/><path d="M4071.63,3009.11c2.571,0 4.688,-2.116 4.688,-4.687c-0.001,-2.572 -2.117,-4.688 -4.688,-4.688c-2.571,0 -4.688,2.116 -4.688,4.688c0.001,2.571 2.117,4.687 4.688,4.687Z" style="fill:#eb9047;fill-rule:nonzero;"/><path d="M4121.84,2977.14c2.571,-0 4.687,-2.116 4.687,-4.688c0,-2.571 -2.116,-4.687 -4.687,-4.687c-2.572,-0 -4.688,2.116 -4.688,4.687c0,2.572 2.116,4.688 4.688,4.688Z" style="fill:#eb9047;fill-rule:nonzero;"/><path d="M4121.84,3038.8c2.571,-0 4.687,-2.116 4.687,-4.688c0,-2.571 -2.116,-4.687 -4.687,-4.687c-2.572,-0 -4.688,2.116 -4.688,4.687c0,2.572 2.116,4.688 4.688,4.688Z" style="fill:#eb9047;fill-rule:nonzero;"/><path d="M4194.91,3045.64c2.572,-0 4.688,-2.116 4.688,-4.688c-0,-2.571 -2.116,-4.687 -4.688,-4.687c-2.571,-0 -4.687,2.116 -4.687,4.687c-0,2.572 2.116,4.688 4.687,4.688Z" style="fill:#eb9047;fill-rule:nonzero;"/><path d="M4188.06,2922.36c2.571,0 4.687,-2.116 4.687,-4.687c0,-2.572 -2.116,-4.688 -4.688,-4.688c-2.571,0 -4.687,2.116 -4.687,4.688c0,2.571 2.116,4.687 4.688,4.687Z" style="fill:#eb9047;fill-rule:nonzero;"/><path d="M4030.53,2936.05c2.572,-0 4.688,-2.116 4.688,-4.688c-0,-2.571 -2.116,-4.687 -4.688,-4.687c-2.571,-0 -4.687,2.116 -4.687,4.687c-0,2.572 2.116,4.688 4.687,4.688Z" style="fill:#eb9047;fill-rule:nonzero;"/><path d="M5037.34,2705.45c2.571,0 4.687,-2.116 4.687,-4.687c0,-2.572 -2.116,-4.688 -4.687,-4.688c-2.572,0 -4.688,2.116 -4.688,4.688c0,2.571 2.116,4.687 4.688,4.687Z" style="fill:#eb9047;fill-rule:nonzero;"/><path d="M5045.13,2772.58l2.281,-2.281c0.436,-0.418 0.767,-0.932 0.969,-1.5c0.275,-0.564 0.414,-1.185 0.406,-1.813c0.01,-0.627 -0.129,-1.249 -0.406,-1.812c-0.186,-0.576 -0.52,-1.093 -0.969,-1.5l-0.968,-0.75c-0.713,-0.41 -1.522,-0.626 -2.344,-0.625l-1.25,0.156c-0.788,0.205 -1.503,0.627 -2.063,1.219l-2.312,2.281c-0.438,0.416 -0.77,0.93 -0.969,1.5c-0.282,0.561 -0.412,1.186 -0.375,1.813c-0.033,0.626 0.097,1.25 0.375,1.812c0.214,0.563 0.544,1.074 0.969,1.5l0.968,0.719c0.715,0.437 1.538,0.664 2.375,0.656l1.219,-0.187c0.787,-0.212 1.508,-0.621 2.094,-1.188Z" style="fill:#eb9047;fill-rule:nonzero;"/><path d="M4733.25,2199.67c0.219,-2.188 2.5,-3.781 4.406,-4.438c2.702,-0.728 5.596,-0.098 7.75,1.688c6.25,4.5 7.188,13 7.688,20.031c0.187,3.125 3.937,6.25 7.031,4.063c1.345,-1.18 3.075,-1.832 4.864,-1.832c3.841,0 7.072,3.001 7.355,6.832c0.747,2.413 3.318,3.81 5.75,3.125c2.392,-0.775 3.776,-3.322 3.125,-5.75c-1.408,-7.882 -8.329,-13.677 -16.336,-13.677c-3.453,0 -6.821,1.078 -9.633,3.083l7.063,4.031c-0.782,-11.219 -3.563,-24.25 -14.813,-29.531c-10.031,-4.719 -22.594,0.656 -23.781,12.25c0.017,2.565 2.122,4.67 4.687,4.687c2.553,-0.049 4.638,-2.135 4.688,-4.687l0.156,0.125Z" style="fill:#59774f;fill-rule:nonzero;"/><path d="M4795.34,2245.42c2.571,-0 4.687,-2.116 4.687,-4.688c0,-2.571 -2.116,-4.687 -4.687,-4.687c-2.572,-0 -4.688,2.116 -4.688,4.687c0,2.572 2.116,4.688 4.688,4.688Z" style="fill:#59774f;fill-rule:nonzero;"/><path d="M4770.13,2150.67c2.571,-0 4.688,-2.116 4.688,-4.688c-0.001,-2.571 -2.117,-4.687 -4.688,-4.687c-2.571,-0 -4.688,2.116 -4.688,4.687c0.001,2.572 2.117,4.688 4.688,4.688Z" style="fill:#59774f;fill-rule:nonzero;"/><path d="M4788.5,2173.48c2.571,0 4.688,-2.116 4.688,-4.687c-0.001,-2.572 -2.117,-4.688 -4.688,-4.688c-2.571,0 -4.688,2.116 -4.688,4.688c0.001,2.571 2.117,4.687 4.688,4.687Z" style="fill:#59774f;fill-rule:nonzero;"/><path d="M4786.22,2147.23c2.571,0 4.687,-2.116 4.687,-4.687c0,-2.572 -2.116,-4.688 -4.687,-4.688c-2.572,0 -4.688,2.116 -4.688,4.688c0,2.571 2.116,4.687 4.688,4.687Z" style="fill:#59774f;fill-rule:nonzero;"/><path d="M4812.38,2034.95c-6.25,-8.219 -17.781,-5.844 -24.469,0.75c-7.13,7.247 -10.142,17.624 -8,27.563l4.5,-5.938c-6.062,0.469 -12.5,1.188 -17.187,5.25c-4.457,3.533 -6.31,9.465 -4.656,14.906c0.787,2.397 3.344,3.779 5.781,3.125c2.403,-0.761 3.793,-3.319 3.125,-5.75c-0.435,-0.93 -0.435,-2.007 -0,-2.937c0.508,-1.126 1.306,-2.097 2.312,-2.813c3.241,-1.747 6.882,-2.619 10.563,-2.531c2.581,-0.058 4.673,-2.198 4.673,-4.78c0,-0.39 -0.048,-0.779 -0.142,-1.157c-1.187,-6.043 0.397,-12.31 4.313,-17.063c1.58,-2.062 3.766,-3.581 6.25,-4.344c1.004,-0.34 2.07,-0.458 3.125,-0.343c-0.375,-0 0.5,0.156 0.562,0.187c0.75,0.25 -0.5,-0.281 0.219,0c0.266,0.097 0.51,0.245 0.719,0.438c1.34,2.067 4.062,2.788 6.25,1.656c2.129,-1.29 2.877,-4.064 1.687,-6.25l0.375,0.031Z" style="fill:#59774f;fill-rule:nonzero;"/><path d="M4771.38,2026.23c2.571,0 4.688,-2.116 4.688,-4.687c-0.001,-2.572 -2.117,-4.688 -4.688,-4.688c-2.571,0 -4.688,2.116 -4.688,4.688c0.001,2.571 2.117,4.687 4.688,4.687Z" style="fill:#59774f;fill-rule:nonzero;"/><path d="M4763.34,1956.92c0.287,-0.126 0.56,-0.283 0.812,-0.469c0,0.188 -0.906,0.313 -0.25,0l0.438,0c0.343,0 0.187,0 -0.469,0l0.75,0c0.875,0 0,0 0,0c0.244,0.085 0.495,0.147 0.75,0.188c0.531,-0 -0.844,-0.469 0,-0l0.406,0.25c0.282,0.187 0.188,-0 -0.343,-0.282c-0,0 0.5,0.5 0.562,0.532c0.063,0.031 -0.437,-0.813 0,-0c0,0.187 0.406,0.968 0.188,0.281c-0.219,-0.688 -0,-0 -0,0.312l-0,0.469c-0,0.344 -0,0.188 -0,-0.469l-0,0.75c-0,0.5 0.312,-1.031 -0,-0.156c-0,0.281 -0.438,1.188 -0,0c-0.425,0.721 -0.649,1.542 -0.649,2.379c0,2.571 2.116,4.687 4.688,4.687c0.844,0 1.673,-0.228 2.398,-0.66c0.429,-0.3 0.878,-0.571 1.344,-0.812c0.656,-0.344 -0.188,-0 -0.219,-0c-0.031,-0 0.625,-0.219 0.75,-0.25c0.476,-0.071 0.945,-0.176 1.406,-0.313c-0.406,0.188 -0.906,0 0,0l1.469,0c1.031,0 -0.719,-0.187 0,0c0.475,0.085 0.945,0.2 1.406,0.344c0.461,0.144 1.032,0.375 0.344,0l0.313,0c0.343,0.188 1.656,1.125 0.656,0.313c0.897,0.849 2.077,1.339 3.312,1.375c2.57,-0.003 4.684,-2.118 4.684,-4.688c-0,-1.242 -0.494,-2.434 -1.371,-3.312c-2.696,-2.221 -6.042,-3.505 -9.531,-3.657c-3.195,-0.118 -6.347,0.779 -9.001,2.563l6.251,6.25c1.132,-2.339 1.461,-4.987 0.937,-7.531c-0.47,-2.095 -1.559,-4 -3.125,-5.469c-3.659,-3.234 -9.046,-3.681 -13.187,-1.094c-2.182,1.341 -2.931,4.199 -1.688,6.438c1.311,2.105 4.069,2.835 6.25,1.656l-0.281,0.375Z" style="fill:#59774f;fill-rule:nonzero;"/><path d="M4933.75,2252.45c0.156,0 1.156,-0.375 0.969,-0.344c-0.188,0.032 0.75,0 0.343,0c0.467,0.133 0.902,0.356 1.282,0.657c0.821,0.709 1.373,1.681 1.562,2.75c0.313,3.125 -2.625,6.25 -5.031,8.125c-1.588,0.981 -2.468,2.802 -2.25,4.656c0.242,1.856 1.573,3.398 3.375,3.906c3.403,0.738 5.947,3.625 6.25,7.094c-0.002,3.525 -2.38,6.636 -5.781,7.562c-1.842,0.687 -3.069,2.456 -3.069,4.421c-0,2.589 2.13,4.719 4.718,4.719c0.286,0 0.57,-0.026 0.851,-0.077c7.444,-1.877 12.703,-8.625 12.703,-16.303c-0,-7.913 -5.587,-14.807 -13.328,-16.447l1.093,8.562c5.813,-4.312 11.251,-11.218 9.376,-18.937c-1.657,-6.5 -8.876,-12.094 -15.626,-9.375c-2.376,0.813 -3.746,3.347 -3.124,5.781c0.774,2.407 3.342,3.796 5.781,3.125l-0.094,0.125Z" style="fill:#59774f;fill-rule:nonzero;"/><path d="M4971.16,2249.98c2.572,0 4.688,-2.116 4.688,-4.687c-0,-2.572 -2.116,-4.688 -4.688,-4.688c-2.571,0 -4.687,2.116 -4.687,4.688c-0,2.571 2.116,4.687 4.687,4.687Z" style="fill:#59774f;fill-rule:nonzero;"/><path d="M4973.44,2289.92c2.571,-0 4.687,-2.116 4.687,-4.688c0,-2.571 -2.116,-4.687 -4.688,-4.687c-2.571,-0 -4.687,2.116 -4.687,4.687c0,2.572 2.116,4.688 4.688,4.688Z" style="fill:#59774f;fill-rule:nonzero;"/><path d="M4991.5,2218.05c0.968,-2.053 2.266,-3.932 3.844,-5.563c0.904,-1.023 2.379,-1.341 3.625,-0.781c1.669,0.838 2.971,2.263 3.656,4c0.945,2.484 1.503,5.097 1.656,7.75c0.096,2.534 2.154,4.592 4.688,4.688c2.558,-0.034 4.654,-2.129 4.687,-4.688c0,0.906 0,-0.625 0.282,-0.906c-0.376,0.875 0.218,-0.219 0.343,-0.375c-0.531,0.719 0.563,-0.531 0.719,-0.656c-0.656,0.531 0.375,-0 0.531,-0.282c0.157,-0.281 0.5,-0.25 0,0l0.844,-0.281c0.219,0 1.344,-0.219 0.5,0c0.219,0 1.938,0 0.969,0c0.218,0 1.437,0.406 1.125,0.281c1.198,0.673 2.077,1.8 2.437,3.125c0.464,1.557 0.365,3.229 -0.281,4.719c-1.227,2.241 -0.481,5.087 1.688,6.438c2.191,1.157 4.939,0.415 6.249,-1.688c3.844,-7.75 1.313,-18.469 -7.406,-21.594c-1.379,-0.464 -2.824,-0.701 -4.279,-0.701c-6.877,0 -12.695,5.292 -13.346,12.139l9.375,-0c-1,-8.406 -3.125,-17.781 -12.187,-20.813c-8.407,-2.781 -14.469,4.063 -18.063,10.688c-2.875,5.281 5.219,10.031 8.094,4.719l0.25,-0.219Z" style="fill:#59774f;fill-rule:nonzero;"/><path d="M5005.31,2180.08c0.7,0.216 1.424,0.342 2.156,0.375c0.3,0.048 0.606,0.048 0.906,0c0.73,-0.046 1.453,-0.172 2.156,-0.375c0.673,-0.227 1.322,-0.52 1.938,-0.875c1.233,-0.727 2.298,-1.706 3.125,-2.875c0.186,-0.252 0.343,-0.525 0.468,-0.812c0.317,-0.648 0.559,-1.329 0.719,-2.032c0.156,-0.615 0.156,-1.259 0,-1.875c-0.033,-0.612 -0.227,-1.205 -0.562,-1.718c-0.278,-0.541 -0.7,-0.996 -1.219,-1.313c-0.437,-0.432 -0.991,-0.725 -1.594,-0.844c-1.211,-0.335 -2.508,-0.166 -3.594,0.469l-0.968,0.719c-0.567,0.586 -0.976,1.306 -1.188,2.094c-0.054,0.299 -0.138,0.592 -0.25,0.875l0.469,-1.125c-0.146,0.329 -0.324,0.643 -0.531,0.937l0.718,-0.969c-0.23,0.309 -0.503,0.583 -0.812,0.813l0.969,-0.75c-0.329,0.249 -0.685,0.459 -1.063,0.625l1.125,-0.469c-0.351,0.147 -0.718,0.252 -1.093,0.313l1.218,-0.188c-0.342,0.047 -0.689,0.047 -1.031,0l1.219,0l-0.75,-0.187c-0.615,-0.156 -1.26,-0.156 -1.875,-0c-0.622,0.034 -1.225,0.227 -1.75,0.562c-0.522,0.305 -0.971,0.721 -1.313,1.219c-0.413,0.45 -0.704,0.999 -0.843,1.594c-0.307,1.227 -0.128,2.526 0.499,3.625l0.719,0.937c0.58,0.559 1.288,0.967 2.063,1.188l-0.032,0.062Z" style="fill:#59774f;fill-rule:nonzero;"/><path d="M5019.09,2157.52c2.571,-0 4.687,-2.116 4.687,-4.688c0,-2.571 -2.116,-4.687 -4.687,-4.687c-2.572,-0 -4.688,2.116 -4.688,4.687c0,2.572 2.116,4.688 4.688,4.688Z" style="fill:#59774f;fill-rule:nonzero;"/><path d="M5051.06,2140.3c2.735,0.513 4.908,2.624 5.5,5.344c0.833,4.143 0.683,8.425 -0.438,12.5c-0.081,0.35 -0.123,0.709 -0.123,1.068c0,2.589 2.131,4.719 4.719,4.719c1.602,0 3.099,-0.816 3.966,-2.162c0.75,-1.157 3.782,-0 4.782,1.437c2.187,3.125 1.125,8.25 0.562,11.719c-0.59,2.431 0.768,4.944 3.125,5.781c1.625,0.688 1.75,4.656 0.375,5.625c-4.906,3.406 -0.25,11.531 4.75,8.094c3.425,-2.457 5.461,-6.424 5.461,-10.639c0,-5.299 -3.216,-10.097 -8.117,-12.111l3.125,5.75c1.219,-7.438 2.219,-16.75 -4.344,-22.156c-2.252,-2.088 -5.213,-3.248 -8.284,-3.248c-3.887,-0 -7.548,1.859 -9.841,4.998l8.594,3.625c1.187,-6.563 2.281,-13.469 -0.5,-19.813c-2.28,-5.609 -7.583,-9.441 -13.625,-9.844c-6.031,-0.281 -6.031,9.094 -0,9.375l0.312,-0.062Z" style="fill:#59774f;fill-rule:nonzero;"/><path d="M5109.28,2151.8c2.572,-0 4.688,-2.116 4.688,-4.688c-0,-2.571 -2.116,-4.687 -4.688,-4.687c-2.571,-0 -4.687,2.116 -4.687,4.687c-0,2.572 2.116,4.688 4.687,4.688Z" style="fill:#59774f;fill-rule:nonzero;"/><path d="M5143.53,2160.95c2.572,0 4.688,-2.116 4.688,-4.687c-0,-2.572 -2.116,-4.688 -4.688,-4.688c-2.571,0 -4.687,2.116 -4.687,4.688c-0,2.571 2.116,4.687 4.687,4.687Z" style="fill:#59774f;fill-rule:nonzero;"/><path d="M5082.09,2443.73c-0.091,-0.297 -0.164,-0.6 -0.219,-0.906l0.188,1.25c-0.079,-0.685 -0.079,-1.377 -0.001,-2.062l0.001,1.25c0.083,-0.756 0.283,-1.494 0.593,-2.188l-0.468,1.125c0.25,-0.652 0.598,-1.263 1.031,-1.812l-0.75,0.968c0.425,-0.55 0.918,-1.043 1.468,-1.468l-0.968,0.718c0.505,-0.372 1.05,-0.686 1.625,-0.937l-1.125,0.469c0.586,-0.219 1.194,-0.376 1.812,-0.469l-1.219,0.156c0.748,-0.094 1.503,-0.094 2.25,0l-1.25,-0.156c0.744,0.112 1.469,0.322 2.157,0.625l-1.094,-0.5c0.559,0.274 1.093,0.598 1.594,0.969l-0.938,-0.75c0.493,0.389 0.944,0.828 1.344,1.312c0.882,0.873 2.072,1.367 3.313,1.375c2.571,0 4.687,-2.116 4.687,-4.687c-0.075,-1.227 -0.56,-2.394 -1.375,-3.313c-2.374,-2.78 -5.851,-4.384 -9.507,-4.384c-6.857,0 -12.5,5.643 -12.5,12.5c0,1.155 0.16,2.304 0.476,3.415c0.774,2.408 3.343,3.796 5.781,3.125c2.387,-0.8 3.762,-3.345 3.125,-5.781l-0.031,0.156Z" style="fill:#59774f;fill-rule:nonzero;"/><path d="M5108.13,2442.89c2.571,-0 4.688,-2.116 4.688,-4.688c-0.001,-2.571 -2.117,-4.687 -4.688,-4.687c-2.571,-0 -4.688,2.116 -4.688,4.687c0.001,2.572 2.117,4.688 4.688,4.688Z" style="fill:#59774f;fill-rule:nonzero;"/><path d="M5055.63,2417.8c2.571,-0 4.688,-2.116 4.688,-4.688c-0.001,-2.571 -2.117,-4.687 -4.688,-4.687c-2.571,-0 -4.688,2.116 -4.688,4.687c0.001,2.572 2.117,4.688 4.688,4.688Z" style="fill:#59774f;fill-rule:nonzero;"/><path d="M4710.75,2369.77c0.5,-0.641 1.078,-1.219 1.719,-1.719l-0.938,0.75c0.658,-0.522 1.384,-0.953 2.157,-1.281l-1.125,0.468c0.589,-0.224 1.195,-0.401 1.812,-0.531c0.589,-0.154 1.135,-0.443 1.594,-0.844c0.496,-0.334 0.904,-0.785 1.187,-1.312c0.335,-0.525 0.529,-1.128 0.563,-1.75c0.17,-0.613 0.17,-1.262 -0,-1.875c-0.326,-1.182 -1.1,-2.191 -2.156,-2.813l-1.094,-0.468c-0.819,-0.219 -1.681,-0.219 -2.5,-0c-0.576,0.119 -1.14,0.286 -1.688,0.5c-0.899,0.34 -1.767,0.758 -2.593,1.25c-1.34,0.818 -2.516,1.878 -3.469,3.125c-0.449,0.406 -0.783,0.924 -0.969,1.5c-0.277,0.563 -0.416,1.184 -0.406,1.812c-0.011,0.618 0.128,1.229 0.406,1.781c0.194,0.582 0.527,1.107 0.969,1.532c0.889,0.862 2.074,1.354 3.312,1.375l1.25,-0.188c0.781,-0.205 1.493,-0.615 2.063,-1.187l-0.094,-0.125Z" style="fill:#59774f;fill-rule:nonzero;"/><path d="M4543.44,2608.05c2.571,-0 4.687,-2.116 4.687,-4.688c0,-2.571 -2.116,-4.687 -4.688,-4.687c-2.571,-0 -4.687,2.116 -4.687,4.687c0,2.572 2.116,4.688 4.688,4.688Z" style="fill:#59774f;fill-rule:nonzero;"/><path d="M4601.38,2649.14c2.571,-0 4.688,-2.116 4.688,-4.688c-0.001,-2.571 -2.117,-4.687 -4.688,-4.687c-2.571,-0 -4.688,2.116 -4.688,4.687c0.001,2.572 2.117,4.688 4.688,4.688Z" style="fill:#59774f;fill-rule:nonzero;"/><path d="M4554.09,2650.67c2.571,-0 4.687,-2.116 4.687,-4.688c0,-2.571 -2.116,-4.687 -4.687,-4.687c-2.572,-0 -4.688,2.116 -4.688,4.687c0,2.572 2.116,4.688 4.688,4.688Z" style="fill:#59774f;fill-rule:nonzero;"/><path d="M4172.06,3008.33c2.571,0 4.687,-2.116 4.687,-4.687c0,-2.572 -2.116,-4.688 -4.688,-4.688c-2.571,0 -4.687,2.116 -4.687,4.688c0,2.571 2.116,4.687 4.688,4.687Z" style="fill:#59774f;fill-rule:nonzero;"/><path d="M4080.75,2961.17c2.571,-0 4.688,-2.116 4.688,-4.688c-0.001,-2.571 -2.117,-4.687 -4.688,-4.687c-2.571,-0 -4.688,2.116 -4.688,4.687c0.001,2.572 2.117,4.688 4.688,4.688Z" style="fill:#59774f;fill-rule:nonzero;"/><path d="M4213.16,2968.77c2.572,-0 4.688,-2.116 4.688,-4.688c-0,-2.571 -2.116,-4.687 -4.688,-4.687c-2.571,-0 -4.687,2.116 -4.687,4.687c-0,2.572 2.116,4.688 4.687,4.688Z" style="fill:#59774f;fill-rule:nonzero;"/><path d="M4246.66,3072.27c2.572,-0 4.688,-2.116 4.688,-4.688c-0,-2.571 -2.116,-4.687 -4.688,-4.687c-2.571,-0 -4.687,2.116 -4.687,4.687c-0,2.572 2.116,4.688 4.687,4.688Z" style="fill:#59774f;fill-rule:nonzero;"/><path d="M4447.56,2737.42c2.571,-0 4.687,-2.116 4.687,-4.688c0,-2.571 -2.116,-4.687 -4.688,-4.687c-2.571,-0 -4.687,2.116 -4.687,4.687c0,2.572 2.116,4.688 4.688,4.688Z" style="fill:#59774f;fill-rule:nonzero;"/><path d="M4982.63,2780.8c2.571,-0 4.688,-2.116 4.688,-4.688c-0.001,-2.571 -2.117,-4.687 -4.688,-4.687c-2.571,-0 -4.688,2.116 -4.688,4.687c0.001,2.572 2.117,4.688 4.688,4.688Z" style="fill:#59774f;fill-rule:nonzero;"/><path d="M4996.25,2730.58c2.571,0 4.688,-2.116 4.688,-4.687c-0.001,-2.572 -2.117,-4.688 -4.688,-4.688c-2.571,0 -4.688,2.116 -4.688,4.688c0.001,2.571 2.117,4.687 4.688,4.687Z" style="fill:#59774f;fill-rule:nonzero;"/><path d="M5083.03,2664.36c2.572,0 4.688,-2.116 4.688,-4.687c-0,-2.572 -2.116,-4.688 -4.688,-4.688c-2.571,0 -4.687,2.116 -4.687,4.688c-0,2.571 2.116,4.687 4.687,4.687Z" style="fill:#59774f;fill-rule:nonzero;"/><path d="M4578.47,2143.83c2.571,0 4.687,-2.116 4.687,-4.687c0,-2.572 -2.116,-4.688 -4.687,-4.688c-2.572,0 -4.688,2.116 -4.688,4.688c0,2.571 2.116,4.687 4.688,4.687Z" style="fill:#59774f;fill-rule:nonzero;"/><path d="M4587.59,2098.14c2.571,-0 4.687,-2.116 4.687,-4.688c0,-2.571 -2.116,-4.687 -4.687,-4.687c-2.572,-0 -4.688,2.116 -4.688,4.687c0,2.572 2.116,4.688 4.688,4.688Z" style="fill:#59774f;fill-rule:nonzero;"/><path d="M4503.13,2070.77c2.571,-0 4.688,-2.116 4.688,-4.688c-0.001,-2.571 -2.117,-4.687 -4.688,-4.687c-2.571,-0 -4.688,2.116 -4.688,4.687c0.001,2.572 2.117,4.688 4.688,4.688Z" style="fill:#59774f;fill-rule:nonzero;"/><path d="M4660.75,2111.86c2.571,0 4.688,-2.116 4.688,-4.687c-0.001,-2.572 -2.117,-4.688 -4.688,-4.688c-2.571,0 -4.688,2.116 -4.688,4.688c0.001,2.571 2.117,4.687 4.688,4.687Z" style="fill:#59774f;fill-rule:nonzero;"/><path d="M4587.59,2029.67c2.571,-0 4.687,-2.116 4.687,-4.688c0,-2.571 -2.116,-4.687 -4.687,-4.687c-2.572,-0 -4.688,2.116 -4.688,4.687c0,2.572 2.116,4.688 4.688,4.688Z" style="fill:#59774f;fill-rule:nonzero;"/><circle cx="2825" cy="3865.92" r="824.875" style="fill:#65bc7b;"/><path d="M2486.97,3536.61c-3.081,2.252 -5.938,4.795 -8.532,7.594c2.982,-2.372 5.83,-4.907 8.532,-7.594Z" style="fill:#9ad3bb;fill-rule:nonzero;"/><path d="M3085.09,3507.27c29.943,-41.705 70.78,-74.39 118.031,-94.469c-42.344,13.437 -91.781,-8.75 -113.781,-47.375c-22,-38.625 -17.375,-89.438 7.437,-126.313c-39,6 -80.531,9.375 -116.5,-6.812c-35.968,-16.188 -63.031,-58.438 -49.437,-95.5c-20.3,26.563 -51.883,42.177 -85.315,42.177c-46.472,0 -87.912,-30.17 -102.185,-74.396c-2.906,25.438 -6.25,51.813 -19.75,73.469c-13.5,21.656 -40.875,37 -65.032,28.625c-22.749,-7.906 -35.968,-33.594 -58.999,-40.625c7.531,25.687 3.406,85.25 -1.188,124.344c-0.493,4.105 -1.996,8.024 -4.375,11.406c-8.095,10.556 -17.96,19.629 -29.156,26.812c-29.063,18.75 -63.875,25.875 -97.844,32.407c33.403,20.177 53.879,56.468 53.879,95.492c-0,30.176 -12.244,59.097 -33.91,80.101c24.562,-18.156 61.75,-17.281 87.5,0.313c28.875,19.75 43.468,56.25 42.969,91.125c-0.5,34.875 -14.344,68.594 -32.813,98.312c30.377,-20.122 66.02,-30.856 102.457,-30.856c71.626,0 137.116,41.478 167.731,106.231c-17.563,-56.468 13.562,-121.218 64.562,-151.125c51,-29.906 116.594,-28.125 170.781,-4.312c-23.468,-12.094 -35.5,-40.281 -34.187,-66.625c1.312,-26.344 13.781,-50.938 29.125,-72.406Z" style="fill:#9ad3bb;fill-rule:nonzero;"/><path d="M3517,3944.77c-50,9.781 -99.5,32.437 -150.344,43.75c-59.375,13.156 -108.343,-4.375 -166.593,-11.688c-40.625,-5.125 -80.782,-9.906 -121.875,-8.656c-69.782,2.156 -159.625,26.125 -226.094,64.562c-1.119,0.668 -2.398,1.021 -3.7,1.021c-3.96,-0 -7.219,-3.259 -7.219,-7.219c-0,-1.318 0.361,-2.612 1.044,-3.739c31.594,-53.5 39.875,-128.344 31.562,-187.188c-15.468,-109.297 -16.875,-220.126 -4.187,-329.781l-181.25,-38.969c-78.313,176.875 -153.125,447.157 -187.5,637.5c-8.844,48.625 -16.219,98.313 -10,147.344c6.219,49.031 27.719,97.969 67.187,127.719c70.157,52.906 168.75,30.844 256.032,40.906c69.5,8.031 139,11.813 208.406,20.219c79.312,9.625 159.375,-18.469 238.469,-9.563c54.156,6.25 97.375,18.094 132.5,32.813c146.199,-138.741 236.442,-326.48 253.468,-527.313c-43.478,-2.884 -87.146,-0.1 -129.906,8.282Z" style="fill:#ffd7ad;fill-rule:nonzero;"/><path d="M3517,3944.77c-13.981,2.821 -27.811,6.346 -41.438,10.562c-41.907,189.894 -149.636,358.989 -304.031,477.219c29.813,-3.125 59.625,-4.969 89.313,-1.656c54.156,6.25 97.375,18.093 132.5,32.812c146.2,-138.741 236.442,-326.48 253.468,-527.312c-43.45,-2.845 -87.087,-0.03 -129.812,8.375Z" style="fill:#2f2c2b;fill-rule:nonzero;"/><path d="M2669.94,3523.86c24.562,-101.125 72.187,-200.281 153.124,-265.625c9.376,-7.437 20.126,-14.781 31.938,-13.5c8.875,0.969 16.438,6.657 23.5,12.125l88.125,68.532c10.063,7.812 20.656,16.343 24.656,28.437c7.5,22.594 -10.656,44.906 -27.437,61.844c0.337,-0.01 0.675,-0.015 1.013,-0.015c18.652,-0 34,15.348 34,34c-0,9.927 -4.348,19.372 -11.888,25.827c-9.969,8.594 -24,10.719 -35.031,17.907c-14.532,9.375 -22.094,26.531 -34.375,38.843c-18.75,19.032 -46.875,25 -72.063,33.844c-25.187,8.844 -52.125,24 -58.594,50" style="fill:#ffd7ad;fill-rule:nonzero;"/><path d="M2861.88,3580.02c7.719,-8.844 19.219,-12.282 29.875,-16.719c12.863,-5.175 24.712,-12.581 35,-21.875c5.173,-4.819 9.881,-10.113 14.062,-15.813c3.719,-4.937 6.782,-10.343 10.532,-15.25c3.323,-4.667 7.894,-8.307 13.187,-10.5c6.701,-2.051 13.189,-4.74 19.375,-8.031c12.849,-8.009 21.679,-21.142 24.25,-36.062c1.194,-4.946 -1.7,-10.033 -6.562,-11.532c-4.438,-1.218 -10.75,1.532 -11.532,6.563c-1.371,10.555 -7.486,19.928 -16.593,25.437c-5.594,3.313 -12.094,4.657 -18.063,7.25c-6.263,2.744 -11.797,6.919 -16.156,12.188c-8.313,9.875 -14.188,21.25 -23.5,30.344c-8.558,8.28 -18.569,14.912 -29.531,19.562c-13.344,5.656 -27.719,10 -37.5,21.281c-3.508,3.703 -3.508,9.579 -0,13.282c1.758,1.764 4.149,2.757 6.64,2.757c2.491,0 4.883,-0.993 6.641,-2.757l-0.125,-0.125Z" style="fill:#2f2c2b;fill-rule:nonzero;"/><path d="M2939.19,3425.33c22.532,4.156 40.407,-10.531 52.313,-28.125c11.5,-16.937 16.313,-39.594 1.781,-56.25c-1.758,-1.764 -4.149,-2.757 -6.64,-2.757c-2.491,-0 -4.883,0.993 -6.641,2.757c-3.523,3.696 -3.523,9.585 -0,13.281c0.856,1.003 1.571,2.117 2.125,3.313c0.221,0.352 0.37,0.745 0.437,1.156c0.271,0.833 0.521,1.677 0.751,2.531c0.315,1.086 0.463,2.214 0.437,3.344c0.087,1.541 0.087,3.085 0,4.625c-1.337,6.792 -4.177,13.199 -8.313,18.75c-3.523,5.506 -7.974,10.359 -13.156,14.344c-5.095,3.976 -11.54,5.825 -17.968,5.156c-4.95,-1.227 -10.059,1.681 -11.532,6.563c-1.369,4.954 1.579,10.157 6.531,11.531l-0.125,-0.219Z" style="fill:#2f2c2b;fill-rule:nonzero;"/><path d="M2864.56,3842.61c9.94,76.356 -4.768,153.927 -41.969,221.344c-10.347,18.885 -22.43,36.764 -36.094,53.406c-3.488,3.699 -3.488,9.552 0,13.25c1.758,1.765 4.15,2.758 6.641,2.758c2.491,-0 4.882,-0.993 6.64,-2.758c52.055,-63.579 82.273,-142.264 86.157,-224.343c1.031,-22.97 -0.078,-45.986 -3.313,-68.75c-0.687,-5.032 -7.094,-7.782 -11.531,-6.563c-4.87,1.486 -7.761,6.591 -6.531,11.531l-0.001,0.125Z" style="fill:#2f2c2b;fill-rule:nonzero;"/><path d="M2972.44,4217.55c11.779,-19.438 16.432,-42.384 13.156,-64.875c-0.657,-4.875 -7.156,-7.969 -11.532,-6.563c-4.859,1.499 -7.744,6.593 -6.531,11.532c-0.218,-1.469 0,2.062 0.188,2.406c-0,1.156 -0,2.312 0.218,3.437l0.001,7.407c-0.091,4.095 -0.615,8.17 -1.563,12.156c-1.034,4.481 -2.37,8.887 -4,13.187c-0.438,1.063 -0.469,1.219 0,0.5c-0.281,0.594 -0.531,1.188 -0.813,1.813c-0.281,0.625 -0.843,1.781 -1.281,2.656c-1.156,2.344 -2.468,4.625 -3.844,6.875c-0.631,1.287 -0.96,2.701 -0.96,4.134c-0,5.143 4.232,9.375 9.375,9.375c3.114,0 6.032,-1.552 7.773,-4.134l-0.188,0.094Z" style="fill:#2f2c2b;fill-rule:nonzero;"/><path d="M3006.44,4255.3c2.184,-2.756 4.656,-5.271 7.375,-7.5c1.094,-0.906 0.532,-0.219 -0.218,-0c0.335,-0.222 0.659,-0.462 0.968,-0.719l2.25,-1.5c1.538,-0.964 3.124,-1.851 4.75,-2.656l1.094,-0.5c0.25,-0 1.563,-0.688 0.25,-0c-1.312,0.687 0.25,-0 0.563,-0.188l1.125,-0.437c1.718,-0.594 3.437,-1.094 5.218,-1.531l2.657,-0.532l1.187,-0.218c1.219,-0.219 -1.969,0.218 -0.719,-0c1.907,-0 3.813,-0.282 5.719,-0.282c5.143,0 9.375,-4.232 9.375,-9.375c0,-5.143 -4.232,-9.375 -9.375,-9.375c-17.596,-0.019 -34.302,7.869 -45.469,21.469c-1.693,1.798 -2.672,4.156 -2.75,6.625c0.023,2.481 1.01,4.858 2.75,6.625c3.375,3.125 10,4.094 13.25,0l0,0.094Z" style="fill:#2f2c2b;fill-rule:nonzero;"/><path d="M3016.78,4136.61c-1.906,11.25 -3.437,22.782 1.844,33.407c2.385,4.603 5.956,8.487 10.344,11.25c4.995,3.096 10.974,4.212 16.75,3.125c2.366,-0.646 4.387,-2.195 5.625,-4.313c1.238,-2.192 1.575,-4.783 0.937,-7.219c-0.671,-2.345 -2.214,-4.348 -4.312,-5.593c-2.227,-1.133 -4.777,-1.464 -7.219,-0.938c0.625,0 2.25,-0.219 0.687,-0.156l-1.031,-0c-1.156,-0 2.313,0.5 0.719,-0l-0.969,-0.219c-0.375,0 -1.781,-0.719 -0.312,0c1.468,0.719 0.25,0 -0,0c-0.25,0 -1.344,-0.781 -2,-1.219c-1.5,-0.968 1.187,1.094 0.437,0.344c-0.218,-0.25 -0.531,-0.469 -0.781,-0.719c-0.25,-0.25 -1.063,-1.218 -1.625,-1.781c1.625,1.563 0.781,1.031 0.344,0.375c-0.438,-0.656 -0.469,-0.75 -0.688,-1.125c-0.219,-0.375 -0.375,-0.625 -0.531,-0.937c-0.156,-0.313 -0.844,-1.813 -0.188,-0.344c0.657,1.469 0,0.187 0,-0l-0.468,-1.5l-0.282,-1.281c0,-0.344 -0.312,-2.188 -0.187,-0.657c0.125,1.532 -0,0 -0,-0.375l-0,-4.75c-0,-2 0.281,-3.968 0.5,-5.937c0,-1.313 -0.281,1.812 0,0.531c0,-0.562 0.187,-1.094 0.25,-1.656l0.563,-3.125c0.577,-2.443 0.232,-5.015 -0.969,-7.219c-1.246,-2.098 -3.248,-3.642 -5.594,-4.312c-4.531,-1.032 -10.656,1.406 -11.531,6.562l-0.313,-0.219Z" style="fill:#2f2c2b;fill-rule:nonzero;"/><path d="M2797.41,3411.8c12.063,-0 12.094,-18.75 0,-18.75c-12.093,-0 -12.062,18.75 0,18.75Z" style="fill:#2f2c2b;fill-rule:nonzero;"/><path d="M2829.5,3364.61c12.063,0 12.094,-18.75 0,-18.75c-12.094,0 -12.094,18.75 0,18.75Z" style="fill:#2f2c2b;fill-rule:nonzero;"/><path d="M2861.34,3314.39c12.062,-0 12.093,-18.75 -0,-18.75c-12.094,-0 -12.094,18.75 -0,18.75Z" style="fill:#2f2c2b;fill-rule:nonzero;"/><path d="M2658.53,4428.17c47.512,-3.813 95.259,-3.687 142.75,0.375c38.157,3.125 74.125,8.937 112.125,14.812c17.188,2.625 34.375,5.219 51.625,7.25c19.125,2.25 38.281,3.407 57.532,4.344c27.249,1.281 54.531,2.063 81.781,1.375c27.25,-0.687 54.062,-3.375 81,-6.687c26.937,-3.313 53.406,-6.063 80.312,-4.219c26.439,2.338 52.647,6.79 78.375,13.312c6.438,1.469 12.844,3.125 19.282,4.563c11.718,2.812 16.718,-15.281 4.968,-18.094c-26.374,-6.753 -53.075,-12.156 -80,-16.187c-26.877,-3.432 -54.068,-3.663 -81,-0.688c-26.875,2.813 -53.562,6.844 -80.593,8.344c-27.032,1.5 -54.5,1.375 -81.751,0.437c-22.374,-0.75 -44.843,-1.656 -67.124,-3.843c-17.344,-1.75 -30.782,-3.657 -47.813,-6.25c-37.5,-5.688 -75,-11.875 -112.906,-15.625c-46.186,-4.759 -92.679,-5.804 -139.031,-3.125c-6.521,0.416 -13.032,0.875 -19.532,1.375c-5.092,0.13 -9.244,4.282 -9.375,9.375c0,5.143 4.232,9.375 9.375,9.375l0,-0.219Z" style="fill:#2f2c2b;fill-rule:nonzero;"/><path d="M2482.25,3528.52c-3.761,2.679 -7.256,5.714 -10.438,9.062c-0.922,0.842 -1.593,1.924 -1.937,3.125c-1.082,2.294 -1.082,4.956 0,7.25c0.344,1.201 1.015,2.283 1.938,3.125l1.874,1.469c1.441,0.842 3.081,1.285 4.751,1.281l2.499,-0.344c1.557,-0.439 2.977,-1.267 4.126,-2.406c2.981,-2.372 5.829,-4.907 8.531,-7.594c0.911,-0.851 1.58,-1.93 1.937,-3.125c0.596,-1.112 0.876,-2.365 0.813,-3.625c0.066,-1.249 -0.215,-2.494 -0.813,-3.593c-0.353,-1.197 -1.022,-2.277 -1.937,-3.125l-1.907,-1.469c-1.431,-0.837 -3.06,-1.279 -4.718,-1.281l-2.5,0.343c-1.563,0.425 -2.986,1.255 -4.125,2.407c-2.719,2.656 -5.563,5.218 -8.532,7.593l13.251,13.25c2.247,-2.419 4.693,-4.645 7.312,-6.656l-1.906,1.469l1.218,-0.938c1.073,-0.568 1.986,-1.395 2.657,-2.406c0.807,-0.885 1.377,-1.96 1.656,-3.125c0.581,-2.439 0.247,-5.009 -0.938,-7.219l-1.468,-1.906c-1.139,-1.151 -2.562,-1.982 -4.125,-2.406l-2.5,-0.344c-1.65,-0.026 -3.278,0.383 -4.719,1.188Z" style="fill:#9ad3bb;fill-rule:nonzero;"/><path d="M3093.19,3511.98c29.217,-40.226 68.866,-71.726 114.656,-91.093c2.859,-1.683 4.619,-4.762 4.619,-8.08c0,-5.143 -4.232,-9.375 -9.375,-9.375c-0.832,0 -1.66,0.111 -2.463,0.33c-28.375,8.781 -60.312,0.5 -82.906,-18.75c-25.344,-21.688 -35.813,-54.532 -32.469,-87.5c2.142,-19.152 8.875,-37.506 19.625,-53.5c1.878,-3.294 1.581,-7.416 -0.75,-10.407c-2.348,-2.93 -6.192,-4.248 -9.844,-3.375c-31.593,4.813 -65,8.094 -96.156,-1.125c-13.093,-3.687 -25.193,-10.266 -35.406,-19.25c-9.387,-8.325 -16.77,-18.667 -21.594,-30.25c-5.488,-12.739 -5.935,-27.1 -1.25,-40.156c1.129,-4.088 -0.649,-8.457 -4.313,-10.594c-3.664,-2.134 -8.343,-1.528 -11.343,1.469c-17.559,22.646 -43.899,36.845 -72.469,39.063c-44.287,2.399 -85.065,-25.145 -99.375,-67.125c-1.273,-4.465 -5.681,-7.346 -10.281,-6.719c-4.593,0.618 -8.074,4.553 -8.125,9.187c-3.125,28.657 -7.094,61.657 -29.719,81.813c-9.102,8.539 -21.145,13.262 -33.625,13.187c-5.676,-0.355 -11.181,-2.093 -16.031,-5.062c-5.173,-3.15 -9.983,-6.86 -14.344,-11.063c-11.625,-10.468 -22.906,-21.562 -38.188,-26.437c-0.812,-0.224 -1.651,-0.338 -2.494,-0.338c-5.143,0 -9.375,4.232 -9.375,9.375c0,0.843 0.114,1.682 0.338,2.494c0.745,2.696 1.35,5.429 1.813,8.188c-0,0.593 0.656,4.406 0.437,2.625c0.25,2 0.469,4.031 0.656,6.031c0.657,7.719 0.875,15.625 0.907,23.25c-0,17.687 -0.969,35.375 -2.469,53.125c-0.688,8.208 -1.49,16.427 -2.406,24.656c-0.115,3.014 -0.883,5.968 -2.25,8.656c-0.157,0.313 -2.407,3.625 -0.657,1.25c-0.781,1.063 -1.656,2.094 -2.5,3.125c-1.718,2.032 -3.5,4 -5.375,5.938c-13.56,13.395 -29.922,23.62 -47.906,29.937c-21.406,8.032 -43.75,12.5 -66.281,16.813c-8.25,1.594 -8.688,13.187 -2.219,17.125c20.252,12.542 35.609,31.65 43.5,54.125c8.153,23.494 7.396,49.183 -2.125,72.156c-5.378,12.975 -13.306,24.739 -23.312,34.594c-3.28,3.323 -3.603,8.616 -0.75,12.312c2.849,3.697 8.046,4.731 12.093,2.407c28.125,-20.469 67.657,-13.5 90.907,11.687c24.625,26.625 29.812,65.813 21.875,100.469c-5.755,22.991 -15.258,44.878 -28.125,64.781c-4.813,7.781 4.937,18 12.812,12.813c35.125,-22.836 77.114,-32.781 118.75,-28.125c38.037,4.528 73.548,21.443 101.031,48.125c15.558,14.969 28.265,32.642 37.5,52.156c4.594,9.625 20.219,2.844 17.125,-7.219c-11.75,-38.5 0.469,-81.25 26.438,-111.781c29.25,-34.375 73.437,-50.406 118.406,-49.688c26.415,0.46 52.484,6.109 76.719,16.625c4.661,2.501 10.549,0.776 13.125,-3.843c0.842,-1.438 1.286,-3.074 1.286,-4.74c0,-3.335 -1.779,-6.428 -4.661,-8.104c-19.219,-10.125 -29.187,-31.844 -29.625,-52.938c-0.563,-26.906 12.813,-51.875 28.125,-73.25c2.59,-4.432 1.082,-10.211 -3.344,-12.812c-4.459,-2.489 -10.164,-1.004 -12.843,3.344c-13.813,19.437 -25.625,41.5 -29.219,65.343c-3.125,21.469 -0,43.969 11.906,62.5c6.353,10.091 15.187,18.387 25.656,24.094l9.375,-16.219c-47.625,-20.625 -103.343,-26.5 -152.781,-8.437c-45.278,16.287 -80.505,52.728 -95.25,98.531c-7.969,24.629 -8.339,51.096 -1.062,75.938l17.125,-7.219c-18.21,-37.59 -47.893,-68.444 -84.75,-88.094c-62.833,-32.92 -138.805,-29.328 -198.25,9.375l12.812,12.813c23.875,-38.594 40.25,-84.219 31.656,-130.032c-7.437,-39.656 -35.25,-77.062 -76.437,-85.187c-22.406,-4.406 -46.875,-0.938 -65.625,12.5l11.344,14.719c21.088,-21.047 33.972,-48.955 36.312,-78.657c1.837,-28.286 -6.428,-56.325 -23.313,-79.093c-9.451,-12.944 -21.328,-23.929 -34.968,-32.344l-2.219,17.125c41.5,-7.969 85.594,-17.438 117.687,-46.875c7.626,-7 15.876,-15.344 19.157,-25.406c1.153,-4.429 1.854,-8.962 2.093,-13.532c0.5,-4.406 0.938,-8.812 1.376,-13.25c1.718,-18.218 2.968,-36.5 3.124,-54.781c0.251,-17.312 0.344,-35.781 -4.468,-52.562l-11.532,11.531c12.094,3.844 21.5,14.156 31.563,23.062c11.812,10.5 24.719,18.969 40.906,20.094c16.188,1.125 31.25,-5.406 43.438,-14.906c13.064,-10.613 22.878,-24.695 28.312,-40.625c7.031,-18.75 9.188,-38.688 11.438,-58.313l-18.438,2.5c10.393,31.173 33.2,56.718 63,70.563c30.808,13.901 66.185,13.753 96.875,-0.406c16.978,-7.556 31.842,-19.169 43.281,-33.813l-15.625,-9.125c-10.5,29.563 1.719,61.656 22.469,83.531c24.125,25.469 58.969,34.844 93.156,35.594c20.728,0.034 41.419,-1.723 61.844,-5.25l-10.562,-13.781c-21.563,32.406 -28.969,75 -17.469,112.5c11.097,35.575 39.058,63.477 74.656,74.5c19.393,6.198 40.213,6.394 59.719,0.562l-7.219,-17.125c-48.606,20.942 -90.581,54.768 -121.375,97.813c-0.842,1.437 -1.286,3.074 -1.286,4.74c-0,3.334 1.779,6.427 4.661,8.104c4.518,2.514 10.298,0.932 12.907,-3.532Z" style="fill:#9ad3bb;fill-rule:nonzero;"/><path d="M2452.28,3678.36l54.125,-31.937c2.582,-1.741 4.134,-4.659 4.134,-7.773c0,-5.143 -4.232,-9.375 -9.375,-9.375c-1.433,-0 -2.847,0.328 -4.134,0.96l-54.125,31.938c-3.203,1.574 -5.241,4.845 -5.241,8.414c0,5.143 4.232,9.375 9.375,9.375c1.868,0 3.693,-0.558 5.241,-1.602Z" style="fill:#2f2c2b;fill-rule:nonzero;"/><path d="M2388.13,3479.89c18.708,-2.504 37.171,-6.592 55.187,-12.219c4.057,-1.121 6.886,-4.839 6.886,-9.047c0,-5.149 -4.237,-9.386 -9.386,-9.386c-0.844,0 -1.685,0.114 -2.499,0.339c-18.01,5.623 -36.46,9.721 -55.157,12.25c-4.875,0.656 -7.968,7.156 -6.562,11.531c1.499,4.86 6.593,7.745 11.531,6.532Z" style="fill:#2f2c2b;fill-rule:nonzero;"/><path d="M2320.63,3494.39c12.063,-0 12.094,-18.75 0,-18.75c-12.094,-0 -12.094,18.75 0,18.75Z" style="fill:#2f2c2b;fill-rule:nonzero;"/><path d="M2478.16,3251.23c12.063,0 12.094,-18.75 0,-18.75c-12.093,0 -12.062,18.75 0,18.75Z" style="fill:#2f2c2b;fill-rule:nonzero;"/><path d="M2968,3731.45l30.812,37.5c3.636,3.631 9.615,3.631 13.25,0c3.504,-3.692 3.504,-9.558 0,-13.25l-30.812,-37.687c-3.636,-3.632 -9.614,-3.632 -13.25,-0c-3.492,3.709 -3.492,9.572 0,13.281l0,0.156Z" style="fill:#2f2c2b;fill-rule:nonzero;"/><path d="M3141.19,3585.64l17.124,10.281c1.431,0.832 3.057,1.27 4.712,1.27c5.143,-0 9.375,-4.232 9.375,-9.375c-0,-0.841 -0.113,-1.678 -0.336,-2.489c-0.689,-2.328 -2.214,-4.321 -4.282,-5.594l-17.125,-10.281c-1.437,-0.842 -3.074,-1.286 -4.74,-1.286c-3.334,-0 -6.427,1.779 -8.103,4.661c-1.272,2.181 -1.61,4.786 -0.938,7.219c0.69,2.336 2.229,4.332 4.313,5.594Z" style="fill:#2f2c2b;fill-rule:nonzero;"/><path d="M3248.72,3655.33c12.062,0 12.062,-18.75 -0,-18.75c-12.063,0 -12.094,18.75 -0,18.75Z" style="fill:#2f2c2b;fill-rule:nonzero;"/><path d="M3200.53,3296.42l6.844,-6.844c0.922,-0.842 1.593,-1.924 1.938,-3.125c1.081,-2.294 1.081,-4.956 -0.001,-7.25c-0.344,-1.201 -1.015,-2.283 -1.937,-3.125l-1.875,-1.469c-1.441,-0.842 -3.081,-1.284 -4.75,-1.281l-2.469,0.344c-1.57,0.427 -3.003,1.257 -4.156,2.406l-6.844,6.844c-0.915,0.848 -1.584,1.928 -1.937,3.125c-0.584,1.105 -0.865,2.345 -0.813,3.594c-0.048,1.258 0.232,2.507 0.813,3.625c0.357,1.195 1.026,2.273 1.937,3.125l1.907,1.468c1.431,0.837 3.06,1.279 4.718,1.282l2.5,-0.344c1.563,-0.425 2.986,-1.255 4.125,-2.406l0,0.031Z" style="fill:#2f2c2b;fill-rule:nonzero;"/><path d="M3640.47,3865.92c0.15,85.575 -13.234,170.637 -39.656,252.031c-12.712,39.308 -28.457,77.569 -47.094,114.438c-18.642,36.887 -40.014,72.329 -63.938,106.031c-23.486,33.008 -49.413,64.21 -77.562,93.344c-56.862,59.147 -122.355,109.342 -194.25,148.875c-35.878,19.837 -73.228,36.887 -111.719,51c-39.675,14.594 -80.422,26.086 -121.875,34.375c-41.818,8.332 -84.234,13.317 -126.844,14.906c-10.843,0.437 -21.687,0.625 -32.5,0.656c-12.062,0 -12.093,18.75 0,18.75c44.447,-0.063 88.822,-3.594 132.719,-10.562c42.32,-6.728 84.051,-16.748 124.813,-29.969c40.475,-13.178 79.89,-29.412 117.906,-48.563c37.233,-18.768 72.992,-40.33 106.968,-64.5c68.478,-48.561 129.236,-107.181 180.219,-173.875c77.433,-100.9 130.64,-218.265 155.5,-343c8.652,-43.271 13.877,-87.157 15.625,-131.25c0.438,-10.843 0.625,-21.687 0.625,-32.5c0,-12.062 -18.75,-12.093 -18.75,0l-0.187,-0.187Z" style="fill:#2f2c2b;fill-rule:nonzero;"/><path d="M2703.13,999.109c19.011,34.131 54.059,56.417 93.031,59.157c5.143,-0 9.375,-4.232 9.375,-9.375c-0.115,-5.099 -4.276,-9.26 -9.375,-9.375c-32.347,-2.722 -61.25,-21.529 -76.844,-50c-5.781,-10.594 -21.875,-1.157 -16.187,9.375l0,0.218Z" style="fill:#2f2c2b;fill-rule:nonzero;"/><path d="M2245.13,473.297l77.688,40.937c1.548,1.044 3.373,1.602 5.241,1.602c5.143,0 9.375,-4.232 9.375,-9.375c-0,-3.569 -2.038,-6.84 -5.242,-8.414l-77.687,-40.781c-4.47,-2.467 -10.164,-0.971 -12.844,3.375c-2.585,4.44 -1.062,10.221 3.375,12.812l0.094,-0.156Z" style="fill:#2f2c2b;fill-rule:nonzero;"/><path d="M2373.44,187.641l73.156,104.968c2.7,4.322 8.379,5.8 12.843,3.344c4.438,-2.591 5.961,-8.372 3.375,-12.812l-73.156,-104.969c-2.7,-4.321 -8.379,-5.8 -12.844,-3.344c-4.437,2.591 -5.96,8.372 -3.374,12.813Z" style="fill:#2f2c2b;fill-rule:nonzero;"/><path d="M2615.19,148.453l18.968,54.563c1.025,4.179 4.802,7.142 9.106,7.142c5.143,0 9.375,-4.232 9.375,-9.375c-0,-0.938 -0.141,-1.871 -0.418,-2.767l-18.938,-54.532c-1.115,-4.061 -4.835,-6.897 -9.047,-6.897c-5.146,-0 -9.381,4.235 -9.381,9.382c-0,0.839 0.112,1.675 0.334,2.484Z" style="fill:#2f2c2b;fill-rule:nonzero;"/><path d="M2601.38,91.641c12.063,-0 12.063,-18.75 0,-18.75c-12.063,-0 -12.094,18.75 0,18.75Z" style="fill:#2f2c2b;fill-rule:nonzero;"/><path d="M2888.88,9.047c-1.501,53.31 0.126,106.662 4.875,159.781c0.131,5.093 4.283,9.244 9.375,9.375c5.143,0 9.375,-4.232 9.375,-9.375c-4.749,-53.119 -6.376,-106.471 -4.875,-159.781c0.312,-12.063 -18.438,-12.063 -18.75,-0Z" style="fill:#2f2c2b;fill-rule:nonzero;"/><path d="M3125.75,141.422c-2.543,20.449 -8.29,40.37 -17.031,59.031c-2.451,4.472 -0.958,10.154 3.375,12.844c4.44,2.585 10.221,1.062 12.812,-3.375c10.207,-21.618 16.825,-44.755 19.594,-68.5c0.594,-5.031 -4.719,-9.375 -9.375,-9.375c-5.099,0.115 -9.26,4.276 -9.375,9.375Z" style="fill:#2f2c2b;fill-rule:nonzero;"/></svg>